<svg width="500" height="500" viewBox="0 0 500 500" fill="none" xmlns="http://www.w3.org/2000/svg">
<rect width="500" height="500" fill="white"/>
<path opacity="0.1" d="M279.083 96.8485C252.483 95.9262 227.15 87.3429 202.972 77.9596C178.794 68.5762 154.806 58.1651 128.844 53.1651C112.144 49.9651 93.05 49.5096 79.5945 58.4596C66.65 67.0762 62.4611 81.9484 60.2167 95.7484C58.55 106.132 57.5278 117.06 62.1667 126.776C65.3834 133.526 71.1 139.198 75.05 145.665C88.8056 168.154 79.0834 195.887 64.1778 217.848C57.1889 228.148 49.0778 237.976 43.6833 248.96C38.2889 259.943 35.7889 272.487 40.5111 283.676C45.1889 294.787 56.3389 303.087 68.4167 308.948C92.95 320.843 121.856 324.248 150.044 326.171C212.444 330.437 275.172 328.593 337.739 326.726C360.889 326.037 384.144 325.343 406.922 321.765C419.572 319.776 432.633 316.621 441.817 308.987C453.483 299.315 456.361 282.943 448.55 270.815C435.444 250.476 399.222 245.421 390.061 223.593C385.022 211.576 390.2 198.193 397.522 187.054C413.239 163.165 439.578 142.176 440.967 114.832C441.922 96.0707 429.256 77.2762 409.678 68.3929C389.156 59.0873 360.694 60.2596 345.556 75.6651C329.967 91.5651 302.567 97.6651 279.083 96.8485Z" fill="#00B520"/>
<path opacity="0.1" d="M226.25 472.454C319.516 472.454 395.122 462.226 395.122 449.61C395.122 436.993 319.516 426.765 226.25 426.765C132.984 426.765 57.3778 436.993 57.3778 449.61C57.3778 462.226 132.984 472.454 226.25 472.454Z" fill="#00B520"/>
<path d="M267.928 143.654C267.928 143.654 262.7 133.337 263.406 130.271C264.111 127.204 259.728 120.654 259.728 120.654L260.011 109.787C260.011 109.787 259.406 110.898 256.25 111.871C255.983 111.521 255.694 111.176 255.394 110.848C254.252 109.658 252.981 108.598 251.606 107.687L246.05 95.6985L240.678 87.4707C240.678 87.4707 232.206 70.2485 223.456 66.4485L222.078 63.754C222.123 63.7272 222.157 63.6845 222.172 63.6341C222.188 63.5837 222.184 63.5294 222.161 63.4818L220.761 60.7429C220.736 60.6956 220.694 60.6591 220.644 60.6407C220.594 60.6222 220.539 60.623 220.489 60.6429L219.15 58.0207C218.639 54.6225 217.304 51.4011 215.261 48.6374C215.122 48.4429 214.972 48.2652 214.828 48.0818L217.006 48.004C218.917 47.9318 221.05 47.7652 222.333 46.3374C222.793 45.8052 223.132 45.1798 223.328 44.504C223.493 43.9745 223.601 43.4288 223.65 42.8763C223.65 42.7929 223.65 42.7096 223.65 42.6318C223.65 42.4429 223.65 42.2578 223.65 42.0763C223.65 41.9263 223.65 41.7818 223.65 41.6318C223.65 41.4818 223.65 41.3929 223.65 41.2763C223.65 41.1596 223.589 40.8929 223.556 40.7207C223.556 40.6485 223.556 40.5763 223.511 40.504C223.465 40.2864 223.407 40.0713 223.339 39.8596C223.323 39.8181 223.31 39.7754 223.3 39.7318C223.222 39.5096 223.139 39.2874 223.044 39.0707C223.029 39.0422 223.016 39.0124 223.006 38.9818C222.906 38.7652 222.794 38.554 222.678 38.3485L222.644 38.2818C222.604 38.1956 222.557 38.1121 222.506 38.0318C221 35.6652 218.356 34.2818 215.839 33.0318C213.49 31.7971 211.08 30.6845 208.617 29.6985C199.458 26.2638 189.341 26.4066 180.283 30.0985C179.389 30.4373 178.541 30.8891 177.761 31.4429C176.674 32.3632 175.745 33.4555 175.011 34.6763L170.706 41.0374C170.104 41.8112 169.633 42.6782 169.311 43.604C168.506 46.6263 171.033 49.654 170.75 52.7707C170.606 54.3207 169.772 55.7429 169.611 57.2929C169.406 59.2929 170.333 61.2207 171.239 63.0263L177.4 75.2485C177.072 76.854 176.711 78.4985 176.317 80.0874C173.478 83.0207 172.522 84.6207 172.261 85.4874L172.178 85.5318C171.616 85.8949 171.132 86.3672 170.756 86.9207L164.9 92.6096C164.9 92.6096 154.722 95.254 152.606 98.604C152.606 98.604 136.633 97.904 136.772 120.21C136.772 120.21 136.067 128.576 135.661 129.693C135.256 130.81 135.661 142.098 135.661 142.098L135.472 164.965C135.472 164.965 134.861 177.093 135.472 181.415C136.083 185.737 136.789 202.187 136.789 202.187C136.789 202.187 140.606 218.221 139.194 223.937C137.839 229.41 139.194 241.376 141.417 241.426C141.839 242.298 142.322 242.726 142.85 242.482C143.08 242.382 143.315 242.297 143.556 242.226V255.887C143.556 255.887 140.806 275.026 143.889 278.665C141.844 281.576 139.444 286.543 138.833 287.848L117.222 286.687L114.472 287.46L111.95 288.165L110.422 323.315L111.033 323.36L110.989 324.432L112.433 324.537L110.422 359.937L140.339 362.398C139.022 365.348 137.494 368.51 136.9 368.815C135.789 369.371 133.367 367.704 132.8 368.393C132.233 369.082 130.539 369.926 128.561 369.504C126.583 369.082 125.311 371.315 125.311 371.315C125.311 371.315 125.6 371.571 126.033 372.043C122.822 371.654 118.761 373.376 116.556 374.487C115.567 374.987 114.95 375.36 114.95 375.36H109.117L112.322 395.81L114.583 397.354L115.139 413.465C115.139 413.465 124.183 441.348 128.328 441.165C128.597 441.156 128.861 441.088 129.101 440.967C129.342 440.847 129.554 440.675 129.722 440.465C131.944 437.898 130.406 429.082 130.406 429.082V414.404C130.406 414.404 133.794 412.915 133.417 411.798C133.039 410.682 138.883 398.465 139.406 397.354C139.42 397.345 139.433 397.332 139.44 397.316C139.448 397.3 139.452 397.283 139.45 397.265C139.45 396.01 141.994 394.615 141.85 394.06C141.706 393.504 148.072 390.015 148.517 386.948C148.961 383.882 153.178 385.554 153.178 385.554L158.544 379.387C158.706 386.904 159.011 392.165 159.539 393.498C162.083 399.915 163.072 409.954 163.072 409.954C163.072 409.954 161.517 417.621 163.072 420.132C164.028 421.665 166.25 423.31 167.794 424.671C166.189 429.537 166.417 439.882 166.417 439.882V445.826L178.289 449.16C178.289 449.16 178.661 446.187 179.228 446.187C179.794 446.187 187.333 451.948 187.333 451.948C187.333 451.948 216.356 452.321 223.7 451.948C226.478 451.81 227.233 450.615 226.806 449.171C226.1 446.765 222.139 443.648 218.617 443.41C212.961 443.037 205.8 437.093 205.8 437.093C205.8 437.093 206.356 435.787 203.35 433.932C201.272 432.654 195.522 427.482 191.967 424.454C192.133 424.226 192.306 423.998 192.467 423.754C192.467 423.754 187.661 417.087 188.656 414.132C189.65 411.176 188.228 406.91 188.228 406.91C188.228 406.91 185.544 398.682 185.544 394.498C185.544 391.848 185.144 376.776 184.856 366.087L187.333 366.293L187.383 365.226L188.494 365.326L199 366.293L198.678 355.065C203.739 352.843 207.95 350.782 209.694 349.465C215.628 345.021 220.717 344.726 220.717 344.726C220.717 344.726 232.728 338.315 234.567 335.665C236.406 333.015 236.233 313.776 236.233 313.776L235.244 272.543V272.51C235.244 272.51 234.4 252.576 232.7 248.254C232.078 246.654 230.539 241.321 228.856 235.232C229.823 235.132 230.8 235.173 231.756 235.354C231.817 236.843 231.856 237.865 231.856 238.215C231.856 240.582 235.244 242.593 235.244 242.593L232.844 189.26V152.976C240.244 155.332 258.139 156.065 258.139 156.065C271.033 155.387 267.928 143.654 267.928 143.654ZM198.128 97.8318H198.089C198.352 96.4336 198.695 95.0517 199.117 93.6929L198.128 97.8318ZM149.561 280.76C153.944 281.482 159.006 281.271 159.389 280.421C159.428 280.337 159.478 280.187 159.544 279.993C159.683 280.237 159.817 280.487 159.956 280.743L159.528 288.787V288.971L145.083 288.193C146.094 283.887 148.006 281.787 149.561 280.76ZM197.711 321.348L197.339 308.321C197.983 305.921 198.561 303.743 199.056 301.876C199.278 303.426 199.467 304.854 199.611 306.171C200.978 318.532 198.961 320.943 197.711 321.348ZM238.822 126.026C237.994 126.343 234.844 124.36 231.856 122.304C231.856 121.926 231.883 121.554 231.9 121.193C232.322 112.687 218.472 107.393 214.233 106.415C213.205 106.15 212.207 105.777 211.256 105.304C208.997 104.185 206.801 102.945 204.678 101.587L204.733 101.426C204.733 101.426 199.267 97.9652 199.15 93.6485C200.396 89.7222 201.968 85.907 203.85 82.2429C203.956 82.0263 204.072 81.7985 204.183 81.5818C206.767 80.7783 209.178 79.501 211.294 77.8152C212.144 88.9263 228.222 98.4874 228.222 98.4874L229.939 101.265L230.344 101.921C229.478 102.432 229.061 102.843 229.356 103.082C230.578 104.06 233.533 109.593 234.756 111.932C235.089 112.565 235.311 112.96 235.311 112.96C235.311 112.96 237.939 120.11 239.444 126.093C239.244 126.009 239.024 125.986 238.811 126.026H238.822Z" fill="#E2E4E5"/>
<path d="M245.033 97.2096L244.844 97.4596L244.2 98.3207L231.839 107.054L229.217 102.743L227.55 99.9652C227.55 99.9652 202.911 85.1874 213.506 70.9429C224.1 56.6985 239.756 88.9985 239.756 88.9985L245.033 97.2096Z" fill="#E0D3BB"/>
<path d="M220.173 62.4109C220.12 62.3067 219.993 62.2648 219.889 62.3173C219.785 62.3697 219.743 62.4967 219.796 62.6008L221.17 65.3298C221.222 65.4339 221.349 65.4759 221.453 65.4234C221.558 65.371 221.599 65.244 221.547 65.1399L220.173 62.4109Z" fill="#344147"/>
<path d="M206.067 66.2265L206.062 66.229C206.004 66.258 205.981 66.3281 206.01 66.3857L206.42 67.1994C206.449 67.257 206.519 67.2802 206.576 67.2512L206.581 67.2487C206.639 67.2197 206.662 67.1495 206.633 67.092L206.223 66.2782C206.194 66.2207 206.124 66.1975 206.067 66.2265Z" fill="#344147"/>
<path d="M207.188 68.1534C207.155 68.0877 207.075 68.0612 207.009 68.0943C206.944 68.1274 206.917 68.2076 206.95 68.2734L207.727 69.8165C207.761 69.8823 207.841 69.9087 207.906 69.8756C207.972 69.8425 207.999 69.7623 207.966 69.6966L207.188 68.1534Z" fill="#344147"/>
<path d="M208.387 70.5553C208.355 70.4923 208.278 70.4669 208.215 70.4987C208.152 70.5304 208.127 70.6072 208.158 70.6703L208.948 72.2382C208.98 72.3013 209.057 72.3266 209.12 72.2949C209.183 72.2631 209.208 72.1863 209.176 72.1233L208.387 70.5553Z" fill="#344147"/>
<path d="M215.861 57.0523L205.481 62.2799C204.867 62.589 204.62 63.3372 204.929 63.9511L216.709 87.3413C217.018 87.9551 217.766 88.2021 218.38 87.893L228.76 82.6655C229.374 82.3564 229.621 81.6081 229.312 80.9943L217.533 57.6041C217.223 56.9902 216.475 56.7432 215.861 57.0523Z" fill="#344147"/>
<path d="M214.533 58.5374C214.474 58.5669 214.421 58.6079 214.377 58.6581C214.334 58.7083 214.301 58.7666 214.28 58.8297C214.259 58.8928 214.251 58.9594 214.257 59.0255C214.262 59.0917 214.281 59.1562 214.311 59.2152L214.356 59.3096C214.386 59.369 214.405 59.4339 214.41 59.5005C214.416 59.5671 214.408 59.6341 214.387 59.6976C214.366 59.7612 214.333 59.82 214.29 59.8707C214.246 59.9214 214.193 59.9629 214.133 59.9929L208.789 62.6818C208.73 62.7123 208.665 62.7308 208.599 62.7361C208.533 62.7414 208.467 62.7335 208.403 62.7128C208.34 62.6922 208.282 62.6591 208.232 62.6156C208.182 62.5722 208.141 62.5191 208.111 62.4596L208.061 62.3652C208.032 62.3057 207.991 62.2526 207.941 62.209C207.89 62.1654 207.832 62.132 207.769 62.1109C207.706 62.0897 207.64 62.0812 207.574 62.0857C207.507 62.0903 207.443 62.1078 207.383 62.1374L206.344 62.6652C206.231 62.7212 206.129 62.7994 206.046 62.8951C205.962 62.9908 205.899 63.1022 205.859 63.2227C205.819 63.3432 205.804 63.4704 205.814 63.5969C205.824 63.7235 205.859 63.8468 205.917 63.9596L217.272 86.4985C217.389 86.7268 217.591 86.8998 217.834 86.9799C218.078 87.06 218.343 87.0407 218.572 86.9263L227.894 82.2318C228.123 82.1153 228.296 81.9133 228.376 81.6698C228.456 81.4264 228.437 81.1612 228.322 80.9318L216.961 58.3818C216.904 58.2683 216.825 58.1671 216.729 58.0842C216.632 58.0012 216.521 57.938 216.4 57.8983C216.279 57.8586 216.152 57.843 216.025 57.8526C215.898 57.8622 215.775 57.8966 215.661 57.9541L214.533 58.5374Z" fill="#00B520"/>
<path d="M222.533 144.987L219.061 238.165C219.061 238.165 230.728 234.276 232.533 237.193C234.339 240.11 230.589 190.526 230.589 190.526L222.533 144.987Z" fill="#344147"/>
<path opacity="0.15" d="M222.533 144.987L219.061 238.165C219.061 238.165 230.728 234.276 232.533 237.193C234.339 240.11 230.589 190.526 230.589 190.526L222.533 144.987Z" fill="#050B0D"/>
<path d="M223.089 452.115C215.867 452.487 187.35 452.115 187.35 452.115C187.35 452.115 179.939 446.376 179.383 446.376C178.828 446.376 178.461 449.337 178.461 449.337L166.794 446.004V440.082C166.794 440.082 166.422 423.221 169.939 422.487C173.456 421.754 189.017 422.487 189.017 422.487C189.572 422.304 200.128 432.304 203.089 434.154C206.05 436.004 205.494 437.304 205.494 437.304C205.494 437.304 212.533 443.226 218.089 443.599C221.55 443.832 225.444 446.932 226.139 449.337C226.561 450.787 225.811 451.976 223.089 452.115Z" fill="#586367"/>
<path opacity="0.1" d="M223.089 452.115C215.867 452.487 187.35 452.115 187.35 452.115C187.35 452.115 179.939 446.376 179.383 446.376C178.828 446.376 178.461 449.337 178.461 449.337L166.794 446.004V440.198L177.717 444.154L186.422 449.337H226.139C226.561 450.787 225.811 451.976 223.089 452.115Z" fill="#050B0D"/>
<g opacity="0.1">
<path d="M190.661 443.415C190.661 443.415 199.55 434.899 205.494 437.304Z" fill="#050B0D"/>
<path d="M190.661 443.415C190.661 443.415 199.55 434.899 205.494 437.304" stroke="#050B0D" stroke-miterlimit="10"/>
</g>
<path d="M134.383 412.115C134.756 413.226 131.422 414.71 131.422 414.71V429.337C131.422 429.337 132.933 438.121 130.75 440.682C130.586 440.89 130.379 441.059 130.143 441.179C129.907 441.299 129.648 441.366 129.383 441.376C125.311 441.56 116.422 413.782 116.422 413.782L115.867 397.732L113.644 396.193L110.494 375.821H116.239C116.239 375.821 116.844 375.449 117.817 374.949C120.594 373.532 126.411 371.06 129.572 373.415L140.311 397.61C140.311 397.61 134.017 411.004 134.383 412.115Z" fill="#586367"/>
<path opacity="0.1" d="M130.75 440.682C130.586 440.89 130.379 441.059 130.143 441.179C129.907 441.299 129.648 441.366 129.383 441.376C125.311 441.56 116.422 413.782 116.422 413.782L115.867 397.732L113.644 396.193L110.494 375.821H116.239C116.239 375.821 116.844 375.448 117.817 374.948L119.2 395.821L119.939 413.782C119.939 413.782 126.917 433.337 130.75 440.682Z" fill="#050B0D"/>
<path d="M233.783 336.237C231.978 338.876 220.172 345.265 220.172 345.265C220.172 345.265 215.172 345.543 209.339 349.987C206.322 352.287 195.839 356.848 186.422 360.721C177.628 364.337 169.756 367.348 169.756 367.348L160.689 377.904L153.783 385.943C153.783 385.943 149.617 384.276 149.2 387.332C148.783 390.387 142.533 393.86 142.672 394.415C142.811 394.971 140.311 396.36 140.311 397.61C140.311 398.86 131.006 388.582 131.144 382.332C131.283 376.082 126.422 371.776 126.422 371.776C126.422 371.776 127.672 369.554 129.617 369.971C131.561 370.387 133.228 369.554 133.783 368.86C134.339 368.165 136.7 369.832 137.811 369.276C138.922 368.721 143.367 357.748 143.367 357.748L160.683 346.132L195.128 323.043L196.717 321.976C196.717 321.976 201.3 324.076 199.439 306.871C199.078 303.537 198.472 299.487 197.55 294.554C191.856 264.137 212.272 260.665 212.272 260.665L230.189 266.637L234.494 273.304V273.337L235.467 314.415C235.467 314.415 235.589 333.598 233.783 336.237Z" fill="#102026"/>
<path opacity="0.1" d="M186.283 355.682C186.283 355.682 186.339 357.654 186.422 360.721C177.628 364.337 169.756 367.348 169.756 367.348L160.689 377.904C160.539 369.154 160.572 357.787 160.689 346.137L195.133 323.048C190.872 338.843 186.283 355.682 186.283 355.682Z" fill="#050B0D"/>
<path opacity="0.1" d="M234.478 273.321V273.354L207.533 273.876C207.533 273.876 202.811 292.349 202.117 296.237C201.944 297.193 200.9 301.276 199.422 306.887C199.061 303.554 198.456 299.504 197.533 294.571C191.839 264.154 212.256 260.682 212.256 260.682L230.172 266.654L234.478 273.321Z" fill="#050B0D"/>
<path d="M163.506 222.904L160.033 289.571C160.033 289.571 157.533 387.487 160.033 393.876C162.533 400.265 163.506 410.265 163.506 410.265C163.506 410.265 161.978 417.904 163.506 420.404C165.033 422.904 169.894 425.682 169.756 427.071C169.617 428.46 184.617 435.96 192.394 424.015C192.394 424.015 187.672 417.349 188.644 414.432C189.617 411.515 188.228 407.21 188.228 407.21C188.228 407.21 185.589 399.015 185.589 394.832C185.589 390.648 184.617 355.665 184.617 355.665C184.617 355.665 199.756 300.11 200.45 296.221C201.144 292.332 205.867 273.86 205.867 273.86L234.478 273.304C234.478 273.304 233.644 253.443 231.978 249.137C230.311 244.832 222.117 213.304 222.117 213.304L163.506 222.904Z" fill="#102026"/>
<path d="M115.756 288.26L113.272 288.971L113.172 291.426L187.628 292.387V291.421L115.756 288.26Z" fill="#586367"/>
<path d="M203.578 83.804C192.744 105.776 199.472 110.371 200.544 110.937C198.25 109.871 168.428 95.8596 172.35 92.304C174.9 89.9873 177.083 79.9096 178.367 72.6873C179.128 68.3762 179.572 65.0818 179.572 65.0818L210.867 70.8207C207.833 75.7096 205.422 80.0151 203.578 83.804Z" fill="#E0D3BB"/>
<path opacity="0.1" d="M244.867 97.4596L244.222 98.3207L231.839 107.054L229.217 102.743C233.033 100.521 244.478 96.6318 244.478 96.6318L244.867 97.4596Z" fill="#050B0D"/>
<path d="M256.283 117.487C255.172 121.376 236.422 117.487 236.422 117.487L234.478 114.432C234.478 114.432 234.283 114.043 233.956 113.41C232.756 111.082 229.85 105.571 228.65 104.593C227.122 103.343 245.039 97.2318 245.039 97.2318L250.528 109.176C251.881 110.086 253.129 111.142 254.25 112.326C255.639 113.832 256.789 115.715 256.283 117.487Z" fill="#E2E4E5"/>
<path d="M225.172 119.276C225.172 119.276 236.283 128.043 237.95 127.41C239.617 126.776 266.561 144.971 266.561 144.971C266.561 144.971 269.617 156.637 256.978 157.332C256.978 157.332 230.172 156.221 229.061 152.332C227.95 148.443 225.172 119.276 225.172 119.276Z" fill="#344147"/>
<path opacity="0.1" d="M194.894 101.654L182.811 114.154L199.756 221.932L206.422 218.043C206.422 218.043 223.644 225.682 225.033 218.598C226.422 211.515 226.039 183.598 226.039 183.598L223.783 133.165C223.783 133.165 215.867 115.526 215.867 114.971C215.867 114.415 204.45 105.804 204.45 105.804L199.061 101.637L194.894 101.654Z" fill="#050B0D"/>
<path d="M194.894 99.9874L182.811 112.487L199.756 220.265L206.422 216.376C206.422 216.376 223.644 224.015 225.033 216.932C226.422 209.848 226.039 181.932 226.039 181.932L223.783 131.498C223.783 131.498 215.867 113.86 215.867 113.304C215.867 112.748 204.45 104.137 204.45 104.137L199.061 99.9707L194.894 99.9874Z" fill="#E2E4E5"/>
<path opacity="0.1" d="M195.589 101.793L192.256 108.598L195.589 112.115C195.589 112.115 207.533 136.237 205.172 150.543L207.672 197.626L215.728 205.543L222.117 198.165L219.061 155.387C219.061 155.387 210.867 120.11 202.256 109.137L199.756 99.4152L195.589 101.793Z" fill="#050B0D"/>
<path d="M195.589 100.682L192.256 107.487L195.589 111.004C195.589 111.004 207.533 135.126 205.172 149.432L207.672 196.515L215.728 204.432L222.117 197.054L219.061 154.276C219.061 154.276 210.867 118.999 202.256 108.026L199.756 98.3041L195.589 100.682Z" fill="#00B520"/>
<path opacity="0.1" d="M210.867 70.8207C207.833 75.7096 205.444 80.0152 203.578 83.8041C201.612 84.3839 199.572 84.6776 197.522 84.6763C190.656 84.6763 186.7 79.9263 182.811 74.8819C181.922 73.7374 179 74.0041 178.367 72.6596C179.128 68.3485 179.572 65.0541 179.572 65.0541L210.867 70.8207Z" fill="#050B0D"/>
<path d="M218.817 62.8208C218.816 67.8922 217.006 72.7971 213.712 76.6528C210.417 80.5084 205.855 83.0617 200.845 83.8532C195.836 84.6446 190.709 83.6223 186.386 80.9701C182.063 78.3179 178.829 74.2101 177.265 69.3858C175.702 64.5614 175.911 59.3373 177.856 54.6536C179.801 49.9699 183.353 46.134 187.874 43.8362C192.395 41.5385 197.588 40.9297 202.518 42.1195C207.448 43.3092 211.791 46.2194 214.767 50.3263C217.399 53.9604 218.817 58.3332 218.817 62.8208V62.8208Z" fill="#E0D3BB"/>
<path opacity="0.1" d="M190.728 110.265L173.228 89.1541C173.228 89.1541 171.611 88.5041 177.072 82.7875C177.072 82.7875 197.128 98.4208 198.372 101.076C199.617 103.732 190.728 110.265 190.728 110.265Z" fill="#050B0D"/>
<path d="M190.172 109.154L172.672 88.0429C172.672 88.0429 171.056 87.3929 176.517 81.6763C176.517 81.6763 196.572 97.3096 197.817 99.9652C199.061 102.621 190.172 109.154 190.172 109.154Z" fill="#E2E4E5"/>
<path d="M234.478 243.515C234.478 243.515 231.144 241.515 231.144 239.154C231.144 236.793 229.478 203.46 229.478 203.46C229.478 203.46 227.033 183.565 224.478 167.754C222.978 158.437 221.439 150.532 220.35 148.965L220.306 148.899C217.389 145.149 217.944 126.815 199.75 100.01C199.994 100.176 206.267 104.576 210.861 106.787C211.796 107.257 212.777 107.63 213.789 107.899C217.956 108.871 231.567 114.149 231.15 122.621C230.733 131.093 232.122 150.537 232.122 150.537V190.387L234.478 243.515Z" fill="#344147"/>
<path d="M234.478 114.432C234.478 114.432 240.311 130.543 239.478 134.571C238.644 138.599 252.95 154.432 252.95 154.432L266.561 144.987C266.561 144.987 261.422 134.71 262.117 131.654C262.811 128.599 258.506 122.071 258.506 122.071L258.783 111.249C258.783 111.249 256.283 115.943 234.478 114.432Z" fill="#344147"/>
<path opacity="0.1" d="M214.767 50.3263L204.211 50.7263C203.18 50.7195 202.153 50.8484 201.156 51.1096C197.383 52.2707 195.644 56.2818 195.506 59.8874C195.367 63.4929 193.283 67.5318 189.244 67.8485C188.842 67.9168 188.43 67.825 188.094 67.5929C187.838 67.3204 187.668 66.9783 187.606 66.6096C187.026 64.5087 186.131 62.508 184.95 60.6763C183.283 60.9763 182.05 62.5596 181.617 64.2152C181.183 65.8707 181.3 67.6152 181.306 69.3318C181.311 71.512 181.1 73.6874 180.678 75.8263C178.956 73.5905 177.695 71.0347 176.969 68.3075C176.243 65.5802 176.067 62.7359 176.45 59.9399C176.833 57.1438 177.768 54.4518 179.201 52.0204C180.634 49.589 182.536 47.4666 184.796 45.7767C187.056 44.0867 189.63 42.8629 192.367 42.1764C195.105 41.4899 197.951 41.3543 200.742 41.7777C203.532 42.201 206.21 43.1747 208.621 44.6423C211.031 46.1099 213.126 48.042 214.783 50.3263H214.767Z" fill="#050B0D"/>
<path d="M200.606 50.554C201.603 50.2928 202.63 50.164 203.661 50.1707L216.478 49.6929C218.356 49.6207 220.45 49.454 221.711 48.0596C222.164 47.5271 222.497 46.9039 222.689 46.2318C223.019 45.158 223.116 44.0261 222.973 42.9118C222.83 41.7976 222.451 40.7266 221.861 39.7707C220.378 37.4096 217.778 36.0374 215.3 34.7707C212.994 33.5387 210.626 32.4261 208.206 31.4374C199.215 28.0231 189.261 28.1662 180.372 31.8374C179.494 32.1745 178.662 32.6206 177.894 33.1652C176.823 34.0832 175.911 35.1719 175.194 36.3874L170.978 42.7429C170.396 43.519 169.947 44.3864 169.65 45.3096C168.856 48.3263 171.317 51.3429 171.061 54.4485C170.917 55.9929 170.1 57.4096 169.95 58.954C169.75 60.9485 170.661 62.8429 171.556 64.6596L178.967 79.6096C180.163 76.1235 180.77 72.4621 180.761 68.7763C180.761 67.0596 180.617 65.3152 181.072 63.6596C181.528 62.004 182.739 60.4207 184.406 60.1207C185.589 61.9516 186.487 63.9524 187.067 66.054C187.128 66.4232 187.298 66.7656 187.556 67.0374C187.891 67.27 188.304 67.3618 188.706 67.2929C192.767 66.9763 194.817 62.9763 194.967 59.3318C195.117 55.6874 196.833 51.7152 200.606 50.554Z" fill="#586367"/>
<path d="M113.272 288.971L118.461 287.487L196.7 291.749L188.089 292.86L113.272 288.971Z" fill="#586367"/>
<path opacity="0.1" d="M113.272 288.971L118.461 287.487L196.7 291.749L188.089 292.86L113.272 288.971Z" fill="#050B0D"/>
<path d="M198.828 366.749L188.506 365.787L184.883 365.454V308.043L185.839 294.715L186.05 291.749H196.7L198.828 366.749Z" fill="#586367"/>
<path opacity="0.1" d="M196.006 364.71L187.772 363.799L184.883 363.482V309.049L185.644 296.415L185.811 293.599H194.306L196.006 364.71Z" fill="#050B0D"/>
<path d="M139.544 288.971C139.544 288.971 144.683 277.699 146.839 277.349C148.994 276.999 152.95 277.349 152.95 277.349L152.6 280.615C152.6 280.615 147.322 281.032 145.656 289.849L139.544 288.971Z" fill="#586367"/>
<path opacity="0.1" d="M139.544 288.971C139.544 288.971 144.683 277.699 146.839 277.349C148.994 276.999 152.95 277.349 152.95 277.349L152.6 280.615C152.6 280.615 147.322 281.032 145.656 289.849L139.544 288.971Z" fill="#050B0D"/>
<path d="M159.478 276.171C159.478 276.171 173.294 283.043 171.489 291.099L163.989 290.682C163.989 290.682 160.378 278.671 157.533 278.043C154.689 277.415 159.478 276.171 159.478 276.171Z" fill="#586367"/>
<path d="M210.867 167.349V167.754L210.589 214.015C210.589 214.015 203.506 252.904 201.561 254.432C199.617 255.96 156.978 251.793 156.978 251.793L137.672 121.654C137.533 99.4319 153.228 100.126 153.228 100.126C155.311 96.793 165.311 94.1541 165.311 94.1541L170.867 88.7374L171.044 88.4874C171.414 87.9371 171.89 87.4666 172.444 87.1041V87.1041C173.589 86.443 174.317 87.3152 174.733 88.1763C174.921 88.5806 175.066 89.0032 175.167 89.4374C197.672 105.943 210.867 167.349 210.867 167.349Z" fill="#344147"/>
<path opacity="0.1" d="M210.311 167.904V168.31C203.328 155.532 176.422 107.121 169.061 104.71L171.894 102.765C171.894 102.765 173.783 101.654 170.311 100.543C170.311 100.543 164.894 101.237 164.756 94.7097L170.489 89.043L171.889 87.6597L174.178 88.7319C174.365 89.1362 174.511 89.5588 174.611 89.993C197.117 106.499 210.311 167.904 210.311 167.904Z" fill="#050B0D"/>
<path d="M210.867 167.349V167.754C203.883 154.976 176.978 106.565 169.617 104.154L172.45 102.21C172.45 102.21 174.339 101.099 170.867 99.9875C170.867 99.9875 165.45 100.682 165.311 94.1541L171.044 88.4875L172.444 87.1041L174.733 88.1764C174.921 88.5807 175.066 89.0033 175.167 89.4375C197.672 105.943 210.867 167.349 210.867 167.349Z" fill="#102026"/>
<path opacity="0.1" d="M220.911 149.499L220.867 149.432C217.95 145.682 218.506 127.349 200.311 100.543C200.556 100.71 206.828 105.11 211.422 107.321L210.139 111.554L212.917 113.037L220.911 149.499Z" fill="#050B0D"/>
<path d="M220.356 148.943L220.311 148.876C217.394 145.126 217.95 126.793 199.756 99.9874C200 100.154 206.272 104.554 210.867 106.765L209.583 110.999L212.361 112.482L220.356 148.943Z" fill="#102026"/>
<path opacity="0.1" d="M198.956 95.7096L197.817 100.521C197.817 100.521 198.65 105.337 203.644 105.754L204.45 103.46C204.45 103.46 199.061 100.004 198.956 95.7096Z" fill="#050B0D"/>
<path d="M198.956 95.1541L197.817 99.9652C197.817 99.9652 198.65 104.782 203.644 105.199L204.45 102.904C204.45 102.904 199.061 99.4485 198.956 95.1541Z" fill="#E2E4E5"/>
<path opacity="0.1" d="M191.772 292.526L188.506 365.787L184.883 365.454V308.043L185.839 294.715L191.772 292.526Z" fill="#050B0D"/>
<path d="M114.017 320.821L111.794 360.448L187.35 366.748L190.661 292.526L114.017 320.821Z" fill="#586367"/>
<path opacity="0.1" d="M112.35 325.082L113.828 290.082L191.217 293.637L187.533 330.637L112.35 325.082Z" fill="#050B0D"/>
<path d="M111.794 323.971L113.272 288.971L190.661 292.526L186.978 329.526L111.794 323.971Z" fill="#586367"/>
<path d="M153.644 324.015H144.339V334.848H153.644V324.015Z" fill="#E2E4E5"/>
<path d="M145.728 253.043L144.339 256.793C144.339 256.793 141.422 277.348 145.033 279.848C148.644 282.348 159.339 282.487 159.894 281.237C160.45 279.987 164.339 265.821 164.339 265.821C164.339 265.821 167.811 276.237 169.617 275.404C171.422 274.571 165.45 254.771 165.45 254.771L145.728 253.043Z" fill="#E0D3BB"/>
<path opacity="0.1" d="M144.339 237.487V257.349C144.339 257.349 159.061 260.126 165.45 255.326C165.45 255.326 159.478 236.099 161.7 231.237C163.922 226.376 144.339 237.487 144.339 237.487Z" fill="#050B0D"/>
<path d="M144.339 236.932V256.793C144.339 256.793 159.061 259.571 165.45 254.771C165.45 254.771 159.478 235.543 161.7 230.682C163.922 225.821 144.339 236.932 144.339 236.932Z" fill="#E2E4E5"/>
<path opacity="0.1" d="M142.672 120.682L138.783 122.765C138.783 122.765 138.089 131.098 137.672 132.21C137.256 133.321 137.672 144.571 137.672 144.571L137.483 167.348C137.483 167.348 136.883 179.432 137.483 183.737C138.083 188.043 138.756 204.432 138.756 204.432C138.756 204.432 142.511 220.404 141.122 226.098C139.733 231.793 141.261 244.571 143.622 243.46C145.983 242.348 167.789 238.043 168.9 237.21C170.011 236.376 169.456 228.598 168.9 227.626C168.344 226.654 165.011 213.46 165.289 210.404C165.567 207.348 164.317 180.543 164.317 180.543C164.317 180.543 166.4 151.932 167.233 145.265C168.067 138.598 165.567 119.015 163.344 118.737C161.122 118.46 154.617 103.321 142.672 120.682Z" fill="#050B0D"/>
<path d="M141.561 119.571L137.672 121.654C137.672 121.654 136.978 129.987 136.561 131.099C136.144 132.21 136.561 143.46 136.561 143.46L136.372 166.237C136.372 166.237 135.772 178.321 136.372 182.626C136.972 186.932 137.644 203.321 137.644 203.321C137.644 203.321 141.4 219.293 140.011 224.987C138.622 230.682 140.15 243.46 142.511 242.349C144.872 241.237 166.678 236.932 167.789 236.099C168.9 235.265 168.344 227.487 167.789 226.515C167.233 225.543 163.9 212.349 164.178 209.293C164.456 206.237 163.206 179.432 163.206 179.432C163.206 179.432 165.289 150.821 166.122 144.154C166.956 137.487 164.456 117.904 162.233 117.626C160.011 117.349 153.506 102.21 141.561 119.571Z" fill="#344147"/>
<g opacity="0.1">
<path opacity="0.1" d="M183.567 58.0375C181.9 58.3375 180.667 59.9208 180.233 61.5764C179.8 63.2319 179.917 64.9764 179.922 66.693C179.933 70.3785 179.328 74.04 178.133 77.5264L170.717 62.5764C170.572 62.2819 170.422 61.9764 170.278 61.6708C170.621 62.6996 171.046 63.6992 171.55 64.6597L178.967 79.6097C180.162 76.1233 180.766 72.4619 180.756 68.7764C180.756 67.0597 180.617 65.3153 181.067 63.6597C181.517 62.0041 182.733 60.4208 184.4 60.1208C184.938 60.9635 185.419 61.8414 185.839 62.7486C185.275 61.0922 184.512 59.5103 183.567 58.0375V58.0375Z" fill="#050B0D"/>
<path opacity="0.1" d="M221.994 40.0096C222.32 41.3764 222.274 42.8056 221.861 44.1485C221.667 44.821 221.332 45.4442 220.878 45.9763C219.617 47.3708 217.544 47.5374 215.644 47.6096L202.833 48.0874C201.801 48.0806 200.771 48.2095 199.772 48.4708C196.006 49.6319 194.261 53.643 194.122 57.2485C193.983 60.8541 191.9 64.893 187.861 65.2096C187.459 65.2779 187.046 65.1862 186.711 64.9541V64.9541C186.839 65.3152 186.961 65.6819 187.067 66.0652C187.124 66.4346 187.292 66.7777 187.55 67.0485C187.885 67.2806 188.298 67.3724 188.7 67.3041C192.767 66.9874 194.811 62.9874 194.961 59.343C195.111 55.6985 196.844 51.7263 200.611 50.5652C201.61 50.3039 202.639 50.1751 203.672 50.1819L216.483 49.7041C218.361 49.6319 220.456 49.4652 221.717 48.0708C222.171 47.5386 222.506 46.9154 222.7 46.243C223.015 45.211 223.115 44.1253 222.993 43.0532C222.872 41.981 222.532 40.9452 221.994 40.0096V40.0096Z" fill="#050B0D"/>
</g>
<path opacity="0.1" d="M201.133 267.871C201.133 267.871 205.944 265.371 207.8 265.51C209.656 265.648 226.317 286.837 226.317 286.837L201.133 267.871Z" fill="#050B0D"/>
<path opacity="0.1" d="M151.783 124.471C151.783 124.471 142.989 128.226 143.222 130.821C143.456 133.415 151.783 124.471 151.783 124.471Z" fill="#050B0D"/>
<path opacity="0.1" d="M147.5 136.748C147.5 136.748 138.272 148.548 140.311 148.943C142.35 149.337 147.5 136.748 147.5 136.748Z" fill="#050B0D"/>
<path opacity="0.1" d="M178.367 154.432C178.367 154.432 179.211 180.821 172.444 184.154L178.367 154.432Z" fill="#050B0D"/>
<path opacity="0.1" d="M143.2 224.893C143.2 224.893 149.711 221.193 151.206 221.932C152.7 222.671 143.2 224.893 143.2 224.893Z" fill="#050B0D"/>
<path opacity="0.1" d="M144.339 230.01C144.339 230.01 148.45 230.304 150.4 229.454C152.35 228.604 144.339 230.01 144.339 230.01Z" fill="#050B0D"/>
<path opacity="0.1" d="M242.478 132.837C242.478 132.837 247.578 147.487 250.517 147.487Z" fill="#050B0D"/>
<path opacity="0.1" d="M169.956 413.415C169.956 413.415 179.522 410.821 180.933 413.415C182.344 416.01 169.956 413.415 169.956 413.415Z" fill="#050B0D"/>
<path opacity="0.1" d="M139.544 374.948C139.544 374.948 137.161 378.599 140.311 379.71C143.461 380.821 139.544 374.948 139.544 374.948Z" fill="#050B0D"/>
<path opacity="0.1" d="M203.089 324.015C203.089 324.015 210.311 330.448 213.722 330.637C217.133 330.826 203.089 324.015 203.089 324.015Z" fill="#050B0D"/>
<path d="M487.556 60.4485C487.556 60.4485 440.783 57.6096 446.295 90.3874C446.295 90.3874 445.183 96.1818 450.45 98.8151C450.45 98.8151 450.533 96.3818 455.25 97.2096C456.927 97.488 458.631 97.57 460.328 97.454C462.618 97.2983 464.796 96.4035 466.533 94.904C466.533 94.904 479.683 89.4763 484.794 67.9818C484.794 67.9818 488.578 63.2929 488.428 62.0874L480.533 65.4596C480.533 65.4596 483.233 71.154 481.089 75.8874C481.089 75.8874 480.833 65.6651 479.317 65.8874C479.006 65.9374 475.211 67.8596 475.211 67.8596C475.211 67.8596 479.856 77.7818 476.35 84.9874C476.35 84.9874 477.683 72.7651 473.767 68.5763L468.211 71.8207C468.211 71.8207 473.639 82.0651 469.961 90.4263C469.961 90.4263 470.906 77.604 467.044 72.6096L462.011 76.5374C462.011 76.5374 467.106 86.6374 464 93.5707C464 93.5707 463.594 78.6429 460.917 77.5151C460.917 77.5151 456.517 81.404 455.844 82.9929C455.844 82.9929 459.333 90.3263 457.167 94.1929C457.167 94.1929 455.839 84.2485 454.75 84.1929C454.75 84.1929 450.361 90.7818 449.906 95.304C449.906 95.304 450.095 88.5818 453.689 83.5651C453.689 83.5651 449.445 84.2929 446.967 87.0485C446.967 87.0485 447.65 82.3874 454.745 81.9818C454.745 81.9818 458.367 76.9818 459.339 76.6763C459.339 76.6763 452.256 76.0874 447.961 77.9874C447.961 77.9874 451.745 73.5929 460.639 75.5929L465.639 71.5374C465.639 71.5374 456.311 70.2596 452.361 71.6707C452.361 71.6707 456.911 67.7818 466.978 70.6151L472.389 67.3763C472.389 67.3763 464.439 65.6651 459.706 66.2651C459.706 66.2651 464.706 63.5707 473.972 66.4929L477.861 64.754C477.861 64.754 472.039 63.6096 470.333 63.4318C468.628 63.254 468.533 62.7763 468.533 62.7763C472.224 62.1613 476.013 62.5825 479.478 63.9929C479.478 63.9929 487.7 60.9429 487.556 60.4485Z" fill="#00B520"/>
<path d="M394.717 54.1652C394.717 54.1652 373.606 52.8929 376.072 67.704C376.072 67.704 375.578 70.3207 377.95 71.5096C377.95 71.5096 377.989 70.3985 380.117 70.7818C380.876 70.9123 381.648 70.9496 382.417 70.8929C383.443 70.8162 384.417 70.411 385.194 69.7374V69.7374C385.194 69.7374 391.133 67.2818 393.444 57.5707C393.444 57.5707 395.156 55.454 395.111 54.9096L391.533 56.4318C391.533 56.4318 392.75 59.0041 391.794 61.1429C391.794 61.1429 391.678 56.5263 390.989 56.6318C390.85 56.6318 389.139 57.5263 389.139 57.5263C389.139 57.5263 391.233 62.0096 389.65 65.2652C389.65 65.2652 390.256 59.7429 388.483 57.8485L385.978 59.3152C385.978 59.3152 388.428 63.9429 386.767 67.7207C386.767 67.7207 387.194 61.9263 385.45 59.6707L383.178 61.4485C383.178 61.4485 385.478 66.0096 384.072 69.1429C384.072 69.1429 383.889 62.3985 382.683 61.8874C382.683 61.8874 380.694 63.6429 380.389 64.3652C380.389 64.3652 381.967 67.6985 380.989 69.4263C380.989 69.4263 380.389 64.9318 379.878 64.9096C379.878 64.9096 377.894 67.8874 377.689 69.9096C377.785 68.0235 378.375 66.1958 379.4 64.6096C378.255 64.8252 377.198 65.3718 376.361 66.1818C376.361 66.1818 376.672 64.0763 379.889 63.8929C379.889 63.8929 381.528 61.6318 381.967 61.4985C381.967 61.4985 378.767 61.2263 376.822 62.0874C376.822 62.0874 378.533 60.104 382.55 60.9763L384.772 59.1429C384.772 59.1429 380.556 58.5874 378.772 59.2041C378.772 59.2041 380.828 57.4485 385.372 58.7263L387.822 57.2652C387.822 57.2652 384.228 56.4929 382.089 56.7707C382.089 56.7707 384.344 55.554 388.539 56.8707L390.283 56.0874C390.283 56.0874 387.656 55.5707 386.883 55.4874C386.111 55.404 386.072 55.1929 386.072 55.1929C387.74 54.919 389.451 55.1113 391.017 55.7485C391.017 55.7485 394.783 54.3985 394.717 54.1652Z" fill="#00B520"/>
<path opacity="0.1" d="M477.555 431.337C485.818 431.337 492.517 430.206 492.517 428.81C492.517 427.414 485.818 426.282 477.555 426.282C469.293 426.282 462.594 427.414 462.594 428.81C462.594 430.206 469.293 431.337 477.555 431.337Z" fill="#00B520"/>
<path opacity="0.1" d="M22.1833 393.71C30.4461 393.71 37.1444 392.578 37.1444 391.182C37.1444 389.786 30.4461 388.654 22.1833 388.654C13.9205 388.654 7.22223 389.786 7.22223 391.182C7.22223 392.578 13.9205 393.71 22.1833 393.71Z" fill="#00B520"/>
<path opacity="0.1" d="M467.144 382.376C475.407 382.376 482.106 381.245 482.106 379.849C482.106 378.452 475.407 377.321 467.144 377.321C458.882 377.321 452.183 378.452 452.183 379.849C452.183 381.245 458.882 382.376 467.144 382.376Z" fill="#00B520"/>
<path opacity="0.1" d="M80.05 407.271C88.3128 407.271 95.0111 406.139 95.0111 404.743C95.0111 403.347 88.3128 402.215 80.05 402.215C71.7872 402.215 65.0889 403.347 65.0889 404.743C65.0889 406.139 71.7872 407.271 80.05 407.271Z" fill="#00B520"/>
<path opacity="0.1" d="M400.456 409.443C408.718 409.443 415.417 408.311 415.417 406.915C415.417 405.519 408.718 404.387 400.456 404.387C392.193 404.387 385.494 405.519 385.494 406.915C385.494 408.311 392.193 409.443 400.456 409.443Z" fill="#00B520"/>
<path d="M444.811 459.676C457.148 459.676 467.15 457.985 467.15 455.898C467.15 453.812 457.148 452.121 444.811 452.121C432.474 452.121 422.472 453.812 422.472 455.898C422.472 457.985 432.474 459.676 444.811 459.676Z" fill="#00B520"/>
<path d="M454.044 449.721C455.062 448.89 455.804 447.771 456.172 446.51C456.45 445.232 455.906 443.732 454.683 443.237C453.317 442.715 451.856 443.66 450.75 444.615C449.644 445.571 448.372 446.665 446.922 446.465C447.668 445.789 448.227 444.931 448.543 443.975C448.86 443.019 448.923 441.997 448.728 441.01C448.663 440.6 448.488 440.216 448.222 439.898C447.467 439.087 446.089 439.437 445.183 440.076C442.294 442.11 441.489 446.032 441.472 449.565C441.183 448.287 441.428 446.96 441.417 445.676C441.406 444.393 441.056 442.898 439.95 442.221C439.268 441.854 438.502 441.672 437.728 441.693C436.428 441.648 434.983 441.776 434.1 442.726C432.989 443.904 433.283 445.887 434.239 447.171C435.194 448.454 436.656 449.282 438 450.182C439.077 450.821 439.994 451.697 440.683 452.743C440.768 452.886 440.835 453.039 440.883 453.198H449.028C450.849 452.27 452.536 451.1 454.044 449.721V449.721Z" fill="#00B520"/>
<path d="M80.8222 342.61C80.8222 342.61 83.8778 346.599 79.4167 352.61C74.9556 358.621 71.2778 363.721 72.75 367.476C72.75 367.476 79.4833 356.287 84.9722 356.132C90.4611 355.976 86.85 349.354 80.8222 342.61Z" fill="#00B520"/>
<path opacity="0.1" d="M80.8223 342.61C81.0896 342.994 81.2992 343.415 81.4445 343.86C86.7889 350.137 89.6389 355.998 84.5 356.148C79.7167 356.282 73.9778 364.837 72.6 366.999C72.6454 367.166 72.6991 367.331 72.7611 367.493C72.7611 367.493 79.4945 356.304 84.9834 356.148C90.4723 355.993 86.85 349.354 80.8223 342.61Z" fill="#050B0D"/>
<path d="M86.4944 347.71C86.4944 349.115 86.3389 350.254 86.1444 350.254C85.95 350.254 85.7944 349.143 85.7944 347.71C85.7944 346.276 85.9889 346.965 86.1833 346.965C86.3778 346.965 86.4944 346.304 86.4944 347.71Z" fill="#FFD037"/>
<path d="M88.4444 349.387C87.2111 350.06 86.1333 350.465 86.0444 350.298C85.9555 350.132 86.8722 349.443 88.1055 348.771C89.3388 348.098 88.8555 348.587 88.9444 348.771C89.0333 348.954 89.6777 348.721 88.4444 349.387Z" fill="#FFD037"/>
<path d="M64.7056 342.61C64.7056 342.61 61.65 346.599 66.1111 352.61C70.5722 358.621 74.25 363.721 72.7778 367.476C72.7778 367.476 66.05 356.287 60.5556 356.132C55.0611 355.976 58.6778 349.354 64.7056 342.61Z" fill="#00B520"/>
<path opacity="0.1" d="M64.7056 342.61C64.4376 342.994 64.2262 343.415 64.0778 343.86C58.7333 350.137 55.8889 355.998 61.0222 356.148C65.8111 356.282 71.55 364.837 72.9278 366.999C72.8831 367.167 72.8275 367.332 72.7611 367.493C72.7611 367.493 66.0334 356.304 60.5389 356.148C55.0445 355.993 58.6778 349.354 64.7056 342.61Z" fill="#050B0D"/>
<path d="M59.0278 347.71C59.0278 349.115 59.1889 350.254 59.3833 350.254C59.5778 350.254 59.7333 349.143 59.7333 347.71C59.7333 346.276 59.5389 346.965 59.3444 346.965C59.15 346.965 59.0278 346.304 59.0278 347.71Z" fill="#FFD037"/>
<path d="M57.0889 349.387C58.3222 350.06 59.3944 350.465 59.4889 350.298C59.5833 350.132 58.6556 349.443 57.4222 348.771C56.1889 348.098 56.6778 348.587 56.5833 348.771C56.4889 348.954 55.85 348.721 57.0889 349.387Z" fill="#FFD037"/>
<path d="M60 366.987C60 366.987 68.5333 366.726 71.1111 364.893C73.6889 363.06 84.2389 360.876 84.8722 363.815C85.5056 366.754 97.7 378.421 88.0667 378.498C78.4333 378.576 65.6778 376.999 63.1111 375.432C60.5444 373.865 60 366.987 60 366.987Z" fill="#B7BCBE"/>
<path opacity="0.2" d="M88.2333 377.476C78.6 377.554 65.8445 375.976 63.2778 374.41C61.3278 373.221 60.5444 368.948 60.2833 366.976H60C60 366.976 60.5556 373.86 63.1056 375.421C65.6556 376.982 78.4278 378.565 88.0611 378.487C90.8389 378.487 91.8 377.476 91.75 376.01C91.3611 376.904 90.3 377.46 88.2333 377.476Z" fill="#050B0D"/>
</svg>
