<svg width="500" height="500" viewBox="0 0 500 500" fill="none" xmlns="http://www.w3.org/2000/svg">
<rect width="500" height="500" fill="white"/>
<path opacity="0.1" d="M488.334 286.329C488.339 293.317 487.379 300.271 485.479 306.996C483.644 313.478 480.943 319.684 477.45 325.446C477.45 346.321 463.359 364.362 442.904 372.946C434.357 376.496 425.189 378.309 415.934 378.279H102.154C85.3835 378.279 69.8418 373.754 57.096 366.046C53.4482 363.85 49.9879 361.357 46.7502 358.592C32.5835 346.417 23.8002 329.592 23.8002 311.008C15.8494 298.765 11.6335 284.473 11.6668 269.875C11.6668 239.308 29.746 213.025 55.646 201.421C59.0852 199.881 62.639 198.61 66.2752 197.621C67.5613 197.271 68.8613 196.957 70.1752 196.679C73.6777 195.933 77.2303 195.446 80.8043 195.221C82.096 195.14 83.3946 195.094 84.7002 195.083H85.4168C86.8585 195.083 88.2877 195.133 89.7085 195.217L90.1752 194.425C90.7474 193.469 91.3335 192.524 91.9335 191.587C93.0168 189.882 94.1529 188.201 95.3418 186.546C96.5863 184.799 97.8849 183.079 99.2377 181.387L99.5835 180.971C100.35 180.015 101.133 179.071 101.933 178.137C104.433 175.224 107.072 172.397 109.85 169.658C139.896 140.208 186.967 121.25 239.883 121.25C281.058 121.25 318.696 132.729 347.525 151.696C358.447 145.515 370.784 142.272 383.334 142.283C424.059 142.283 457.084 175.771 457.084 217.079C457.077 219.693 456.938 222.305 456.667 224.904C466.484 231.853 474.485 241.062 479.997 251.752C485.508 262.443 488.367 274.302 488.334 286.329V286.329Z" fill="#00B520"/>
<path opacity="0.2" d="M109.859 169.642V178.121H101.942C104.422 175.21 107.061 172.383 109.859 169.642Z" fill="#00B520"/>
<path opacity="0.2" d="M124.388 167.492H113.759V178.121H124.388V167.492Z" fill="#00B520"/>
<path opacity="0.2" d="M138.913 167.492H128.283V178.121H138.913V167.492Z" fill="#00B520"/>
<path opacity="0.2" d="M153.442 167.492H142.813V178.121H153.442V167.492Z" fill="#00B520"/>
<path opacity="0.2" d="M167.967 167.492H157.338V178.121H167.967V167.492Z" fill="#00B520"/>
<path opacity="0.2" d="M182.496 167.492H171.867V178.121H182.496V167.492Z" fill="#00B520"/>
<path d="M197.025 167.492H186.396V178.121H197.025V167.492Z" fill="#00B520"/>
<path opacity="0.2" d="M211.55 167.492H200.921V178.121H211.55V167.492Z" fill="#00B520"/>
<path opacity="0.2" d="M226.079 167.492H215.45V178.121H226.079V167.492Z" fill="#00B520"/>
<path opacity="0.2" d="M240.604 167.492H229.975V178.121H240.604V167.492Z" fill="#00B520"/>
<path d="M255.133 167.492H244.504V178.121H255.133V167.492Z" fill="#00B520"/>
<path opacity="0.2" d="M269.663 167.492H259.033V178.121H269.663V167.492Z" fill="#00B520"/>
<path opacity="0.2" d="M284.188 167.492H273.558V178.121H284.188V167.492Z" fill="#00B520"/>
<path opacity="0.2" d="M298.717 167.492H288.088V178.121H298.717V167.492Z" fill="#00B520"/>
<path opacity="0.2" d="M313.246 167.492H302.617V178.121H313.246V167.492Z" fill="#00B520"/>
<path opacity="0.2" d="M327.771 167.492H317.142V178.121H327.771V167.492Z" fill="#00B520"/>
<path opacity="0.2" d="M342.3 167.492H331.671V178.121H342.3V167.492Z" fill="#00B520"/>
<path d="M356.825 167.492H346.196V178.121H356.825V167.492Z" fill="#00B520"/>
<path d="M371.354 167.492H360.725V178.121H371.354V167.492Z" fill="#00B520"/>
<path opacity="0.2" d="M385.884 167.492H375.254V178.121H385.884V167.492Z" fill="#00B520"/>
<path opacity="0.2" d="M400.408 167.492H389.779V178.121H400.408V167.492Z" fill="#00B520"/>
<path d="M414.938 167.492H404.309V178.121H414.938V167.492Z" fill="#00B520"/>
<path d="M429.463 167.492H418.833V178.121H429.463V167.492Z" fill="#00B520"/>
<path d="M95.3335 186.542V191.583H91.9252C93.0085 189.867 94.1446 188.186 95.3335 186.542Z" fill="#00B520"/>
<path opacity="0.2" d="M109.859 180.954H99.2294V191.583H109.859V180.954Z" fill="#00B520"/>
<path d="M124.388 180.954H113.759V191.583H124.388V180.954Z" fill="#00B520"/>
<path opacity="0.2" d="M138.913 180.954H128.283V191.583H138.913V180.954Z" fill="#00B520"/>
<path opacity="0.7" d="M153.442 180.954H142.813V191.583H153.442V180.954Z" fill="#00B520"/>
<path opacity="0.2" d="M167.967 180.954H157.338V191.583H167.967V180.954Z" fill="#00B520"/>
<path opacity="0.4" d="M182.496 180.954H171.867V191.583H182.496V180.954Z" fill="#00B520"/>
<path d="M197.025 180.954H186.396V191.583H197.025V180.954Z" fill="#00B520"/>
<path opacity="0.4" d="M211.55 180.954H200.921V191.583H211.55V180.954Z" fill="#00B520"/>
<path opacity="0.2" d="M226.079 180.954H215.45V191.583H226.079V180.954Z" fill="#00B520"/>
<path opacity="0.4" d="M240.604 180.954H229.975V191.583H240.604V180.954Z" fill="#00B520"/>
<path d="M255.133 180.954H244.504V191.583H255.133V180.954Z" fill="#00B520"/>
<path opacity="0.4" d="M269.663 180.954H259.033V191.583H269.663V180.954Z" fill="#00B520"/>
<path opacity="0.4" d="M284.188 180.954H273.558V191.583H284.188V180.954Z" fill="#00B520"/>
<path opacity="0.2" d="M298.717 180.954H288.088V191.583H298.717V180.954Z" fill="#00B520"/>
<path opacity="0.4" d="M313.246 180.954H302.617V191.583H313.246V180.954Z" fill="#00B520"/>
<path opacity="0.4" d="M327.771 180.954H317.142V191.583H327.771V180.954Z" fill="#00B520"/>
<path opacity="0.2" d="M342.3 180.954H331.671V191.583H342.3V180.954Z" fill="#00B520"/>
<path opacity="0.2" d="M356.825 180.954H346.196V191.583H356.825V180.954Z" fill="#00B520"/>
<path opacity="0.4" d="M371.354 180.954H360.725V191.583H371.354V180.954Z" fill="#00B520"/>
<path opacity="0.2" d="M385.884 180.954H375.254V191.583H385.884V180.954Z" fill="#00B520"/>
<path d="M400.408 180.954H389.779V191.583H400.408V180.954Z" fill="#00B520"/>
<path d="M414.938 180.954H404.309V191.583H414.938V180.954Z" fill="#00B520"/>
<path d="M429.463 180.954H418.833V191.583H429.463V180.954Z" fill="#00B520"/>
<path opacity="0.2" d="M66.2752 197.621V205.05H55.646V201.421C59.0852 199.881 62.639 198.61 66.2752 197.621V197.621Z" fill="#00B520"/>
<path opacity="0.2" d="M80.8043 195.221V205.05H70.1752V196.679L80.8043 195.221Z" fill="#00B520"/>
<path d="M95.3294 194.421H84.7002V205.05H95.3294V194.421Z" fill="#00B520"/>
<path opacity="0.7" d="M109.859 194.421H99.2294V205.05H109.859V194.421Z" fill="#00B520"/>
<path d="M124.388 194.421H113.759V205.05H124.388V194.421Z" fill="#00B520"/>
<path opacity="0.7" d="M138.913 194.421H128.283V205.05H138.913V194.421Z" fill="#00B520"/>
<path opacity="0.7" d="M153.442 194.421H142.813V205.05H153.442V194.421Z" fill="#00B520"/>
<path opacity="0.2" d="M167.967 194.421H157.338V205.05H167.967V194.421Z" fill="#00B520"/>
<path opacity="0.4" d="M182.496 194.421H171.867V205.05H182.496V194.421Z" fill="#00B520"/>
<path opacity="0.4" d="M197.025 194.421H186.396V205.05H197.025V194.421Z" fill="#00B520"/>
<path d="M211.55 194.421H200.921V205.05H211.55V194.421Z" fill="#00B520"/>
<path opacity="0.2" d="M226.079 194.421H215.45V205.05H226.079V194.421Z" fill="#00B520"/>
<path opacity="0.4" d="M240.604 194.421H229.975V205.05H240.604V194.421Z" fill="#00B520"/>
<path d="M255.133 194.421H244.504V205.05H255.133V194.421Z" fill="#00B520"/>
<path opacity="0.2" d="M269.663 194.421H259.033V205.05H269.663V194.421Z" fill="#00B520"/>
<path opacity="0.4" d="M284.188 194.421H273.558V205.05H284.188V194.421Z" fill="#00B520"/>
<path opacity="0.2" d="M298.717 194.421H288.088V205.05H298.717V194.421Z" fill="#00B520"/>
<path d="M313.246 194.421H302.617V205.05H313.246V194.421Z" fill="#00B520"/>
<path opacity="0.2" d="M327.771 194.421H317.142V205.05H327.771V194.421Z" fill="#00B520"/>
<path opacity="0.7" d="M342.3 194.421H331.671V205.05H342.3V194.421Z" fill="#00B520"/>
<path opacity="0.7" d="M356.825 194.421H346.196V205.05H356.825V194.421Z" fill="#00B520"/>
<path opacity="0.4" d="M371.354 194.421H360.725V205.05H371.354V194.421Z" fill="#00B520"/>
<path opacity="0.2" d="M385.884 194.421H375.254V205.05H385.884V194.421Z" fill="#00B520"/>
<path d="M400.408 194.421H389.779V205.05H400.408V194.421Z" fill="#00B520"/>
<path d="M414.938 194.421H404.309V205.05H414.938V194.421Z" fill="#00B520"/>
<path d="M429.463 194.421H418.833V205.05H429.463V194.421Z" fill="#00B520"/>
<path opacity="0.2" d="M66.2752 207.883H55.646V218.513H66.2752V207.883Z" fill="#00B520"/>
<path opacity="0.2" d="M80.8043 207.883H70.1752V218.513H80.8043V207.883Z" fill="#00B520"/>
<path opacity="0.2" d="M95.3294 207.883H84.7002V218.513H95.3294V207.883Z" fill="#00B520"/>
<path opacity="0.2" d="M109.859 207.883H99.2294V218.513H109.859V207.883Z" fill="#00B520"/>
<path d="M124.388 207.883H113.759V218.513H124.388V207.883Z" fill="#00B520"/>
<path opacity="0.7" d="M138.913 207.883H128.283V218.513H138.913V207.883Z" fill="#00B520"/>
<path opacity="0.7" d="M153.442 207.883H142.813V218.513H153.442V207.883Z" fill="#00B520"/>
<path opacity="0.2" d="M167.967 207.883H157.338V218.513H167.967V207.883Z" fill="#00B520"/>
<path opacity="0.2" d="M182.496 207.883H171.867V218.513H182.496V207.883Z" fill="#00B520"/>
<path opacity="0.4" d="M197.025 207.883H186.396V218.513H197.025V207.883Z" fill="#00B520"/>
<path opacity="0.4" d="M211.55 207.883H200.921V218.513H211.55V207.883Z" fill="#00B520"/>
<path d="M226.079 207.883H215.45V218.513H226.079V207.883Z" fill="#00B520"/>
<path opacity="0.2" d="M240.604 207.883H229.975V218.513H240.604V207.883Z" fill="#00B520"/>
<path opacity="0.4" d="M255.133 207.883H244.504V218.513H255.133V207.883Z" fill="#00B520"/>
<path opacity="0.4" d="M269.663 207.883H259.033V218.513H269.663V207.883Z" fill="#00B520"/>
<path opacity="0.4" d="M284.188 207.883H273.558V218.513H284.188V207.883Z" fill="#00B520"/>
<path opacity="0.4" d="M298.717 207.883H288.088V218.513H298.717V207.883Z" fill="#00B520"/>
<path opacity="0.2" d="M313.246 207.883H302.617V218.513H313.246V207.883Z" fill="#00B520"/>
<path opacity="0.2" d="M327.771 207.883H317.142V218.513H327.771V207.883Z" fill="#00B520"/>
<path opacity="0.2" d="M342.3 207.883H331.671V218.513H342.3V207.883Z" fill="#00B520"/>
<path opacity="0.2" d="M356.825 207.883H346.196V218.513H356.825V207.883Z" fill="#00B520"/>
<path opacity="0.7" d="M371.354 207.883H360.725V218.513H371.354V207.883Z" fill="#00B520"/>
<path opacity="0.7" d="M385.884 207.883H375.254V218.513H385.884V207.883Z" fill="#00B520"/>
<path opacity="0.4" d="M400.408 207.883H389.779V218.513H400.408V207.883Z" fill="#00B520"/>
<path opacity="0.2" d="M414.938 207.883H404.309V218.513H414.938V207.883Z" fill="#00B520"/>
<path d="M429.463 207.883H418.833V218.513H429.463V207.883Z" fill="#00B520"/>
<path opacity="0.2" d="M66.2752 221.35H55.646V231.979H66.2752V221.35Z" fill="#00B520"/>
<path opacity="0.2" d="M80.8043 221.35H70.1752V231.979H80.8043V221.35Z" fill="#00B520"/>
<path opacity="0.4" d="M95.3294 221.35H84.7002V231.979H95.3294V221.35Z" fill="#00B520"/>
<path opacity="0.2" d="M109.859 221.35H99.2294V231.979H109.859V221.35Z" fill="#00B520"/>
<path opacity="0.2" d="M124.388 221.35H113.759V231.979H124.388V221.35Z" fill="#00B520"/>
<path opacity="0.7" d="M138.913 221.35H128.283V231.979H138.913V221.35Z" fill="#00B520"/>
<path opacity="0.7" d="M153.442 221.35H142.813V231.979H153.442V221.35Z" fill="#00B520"/>
<path opacity="0.2" d="M167.967 221.35H157.338V231.979H167.967V221.35Z" fill="#00B520"/>
<path opacity="0.2" d="M182.496 221.35H171.867V231.979H182.496V221.35Z" fill="#00B520"/>
<path opacity="0.4" d="M197.025 221.35H186.396V231.979H197.025V221.35Z" fill="#00B520"/>
<path d="M211.55 221.35H200.921V231.979H211.55V221.35Z" fill="#00B520"/>
<path opacity="0.2" d="M226.079 221.35H215.45V231.979H226.079V221.35Z" fill="#00B520"/>
<path d="M240.604 221.35H229.975V231.979H240.604V221.35Z" fill="#00B520"/>
<path d="M255.133 221.35H244.504V231.979H255.133V221.35Z" fill="#00B520"/>
<path d="M269.663 221.35H259.033V231.979H269.663V221.35Z" fill="#00B520"/>
<path opacity="0.2" d="M284.188 221.35H273.558V231.979H284.188V221.35Z" fill="#00B520"/>
<path d="M298.717 221.35H288.088V231.979H298.717V221.35Z" fill="#00B520"/>
<path opacity="0.2" d="M313.246 221.35H302.617V231.979H313.246V221.35Z" fill="#00B520"/>
<path opacity="0.2" d="M327.771 221.35H317.142V231.979H327.771V221.35Z" fill="#00B520"/>
<path opacity="0.2" d="M342.3 221.35H331.671V231.979H342.3V221.35Z" fill="#00B520"/>
<path opacity="0.2" d="M356.825 221.35H346.196V231.979H356.825V221.35Z" fill="#00B520"/>
<path opacity="0.2" d="M371.354 221.35H360.725V231.979H371.354V221.35Z" fill="#00B520"/>
<path opacity="0.7" d="M385.884 221.35H375.254V231.979H385.884V221.35Z" fill="#00B520"/>
<path opacity="0.2" d="M400.408 221.35H389.779V231.979H400.408V221.35Z" fill="#00B520"/>
<path opacity="0.2" d="M414.938 221.35H404.309V231.979H414.938V221.35Z" fill="#00B520"/>
<path d="M429.463 221.35H418.833V231.979H429.463V221.35Z" fill="#00B520"/>
<path opacity="0.2" d="M66.2752 234.812H55.646V245.442H66.2752V234.812Z" fill="#00B520"/>
<path opacity="0.2" d="M80.8043 234.812H70.1752V245.442H80.8043V234.812Z" fill="#00B520"/>
<path opacity="0.2" d="M95.3294 234.812H84.7002V245.442H95.3294V234.812Z" fill="#00B520"/>
<path opacity="0.4" d="M109.859 234.812H99.2294V245.442H109.859V234.812Z" fill="#00B520"/>
<path opacity="0.2" d="M124.388 234.812H113.759V245.442H124.388V234.812Z" fill="#00B520"/>
<path opacity="0.2" d="M138.913 234.812H128.283V245.442H138.913V234.812Z" fill="#00B520"/>
<path opacity="0.7" d="M153.442 234.812H142.813V245.442H153.442V234.812Z" fill="#00B520"/>
<path opacity="0.2" d="M167.967 234.812H157.338V245.442H167.967V234.812Z" fill="#00B520"/>
<path opacity="0.2" d="M182.496 234.812H171.867V245.442H182.496V234.812Z" fill="#00B520"/>
<path opacity="0.2" d="M197.025 234.812H186.396V245.442H197.025V234.812Z" fill="#00B520"/>
<path d="M211.55 234.812H200.921V245.442H211.55V234.812Z" fill="#00B520"/>
<path opacity="0.2" d="M226.079 234.812H215.45V245.442H226.079V234.812Z" fill="#00B520"/>
<path d="M240.604 234.812H229.975V245.442H240.604V234.812Z" fill="#00B520"/>
<path d="M255.133 234.812H244.504V245.442H255.133V234.812Z" fill="#00B520"/>
<path opacity="0.2" d="M269.663 234.812H259.033V245.442H269.663V234.812Z" fill="#00B520"/>
<path opacity="0.2" d="M284.188 234.812H273.558V245.442H284.188V234.812Z" fill="#00B520"/>
<path opacity="0.2" d="M298.717 234.812H288.088V245.442H298.717V234.812Z" fill="#00B520"/>
<path opacity="0.2" d="M313.246 234.812H302.617V245.442H313.246V234.812Z" fill="#00B520"/>
<path opacity="0.2" d="M327.771 234.812H317.142V245.442H327.771V234.812Z" fill="#00B520"/>
<path opacity="0.2" d="M342.3 234.812H331.671V245.442H342.3V234.812Z" fill="#00B520"/>
<path opacity="0.2" d="M356.825 234.812H346.196V245.442H356.825V234.812Z" fill="#00B520"/>
<path opacity="0.2" d="M371.354 234.812H360.725V245.442H371.354V234.812Z" fill="#00B520"/>
<path opacity="0.2" d="M385.884 234.812H375.254V245.442H385.884V234.812Z" fill="#00B520"/>
<path opacity="0.2" d="M400.408 234.812H389.779V245.442H400.408V234.812Z" fill="#00B520"/>
<path opacity="0.4" d="M414.938 234.812H404.309V245.442H414.938V234.812Z" fill="#00B520"/>
<path d="M429.463 234.812H418.833V245.442H429.463V234.812Z" fill="#00B520"/>
<path opacity="0.7" d="M66.2752 248.279H55.646V258.908H66.2752V248.279Z" fill="#00B520"/>
<path opacity="0.7" d="M80.8043 248.279H70.1752V258.908H80.8043V248.279Z" fill="#00B520"/>
<path opacity="0.7" d="M95.3294 248.279H84.7002V258.908H95.3294V248.279Z" fill="#00B520"/>
<path opacity="0.7" d="M109.859 248.279H99.2294V258.908H109.859V248.279Z" fill="#00B520"/>
<path opacity="0.7" d="M124.388 248.279H113.759V258.908H124.388V248.279Z" fill="#00B520"/>
<path opacity="0.2" d="M138.913 248.279H128.283V258.908H138.913V248.279Z" fill="#00B520"/>
<path opacity="0.2" d="M153.442 248.279H142.813V258.908H153.442V248.279Z" fill="#00B520"/>
<path opacity="0.2" d="M167.967 248.279H157.338V258.908H167.967V248.279Z" fill="#00B520"/>
<path opacity="0.2" d="M182.496 248.279H171.867V258.908H182.496V248.279Z" fill="#00B520"/>
<path opacity="0.2" d="M197.025 248.279H186.396V258.908H197.025V248.279Z" fill="#00B520"/>
<path opacity="0.2" d="M211.55 248.279H200.921V258.908H211.55V248.279Z" fill="#00B520"/>
<path d="M226.079 248.279H215.45V258.908H226.079V248.279Z" fill="#00B520"/>
<path opacity="0.2" d="M240.604 248.279H229.975V258.908H240.604V248.279Z" fill="#00B520"/>
<path opacity="0.2" d="M255.133 248.279H244.504V258.908H255.133V248.279Z" fill="#00B520"/>
<path opacity="0.2" d="M269.663 248.279H259.033V258.908H269.663V248.279Z" fill="#00B520"/>
<path d="M284.188 248.279H273.558V258.908H284.188V248.279Z" fill="#00B520"/>
<path opacity="0.2" d="M298.717 248.279H288.088V258.908H298.717V248.279Z" fill="#00B520"/>
<path opacity="0.2" d="M313.246 248.279H302.617V258.908H313.246V248.279Z" fill="#00B520"/>
<path opacity="0.2" d="M327.771 248.279H317.142V258.908H327.771V248.279Z" fill="#00B520"/>
<path opacity="0.2" d="M342.3 248.279H331.671V258.908H342.3V248.279Z" fill="#00B520"/>
<path opacity="0.2" d="M356.825 248.279H346.196V258.908H356.825V248.279Z" fill="#00B520"/>
<path opacity="0.2" d="M371.354 248.279H360.725V258.908H371.354V248.279Z" fill="#00B520"/>
<path opacity="0.2" d="M385.884 248.279H375.254V258.908H385.884V248.279Z" fill="#00B520"/>
<path opacity="0.2" d="M400.408 248.279H389.779V258.908H400.408V248.279Z" fill="#00B520"/>
<path opacity="0.2" d="M414.938 248.279H404.309V258.908H414.938V248.279Z" fill="#00B520"/>
<path d="M429.463 248.279H418.833V258.908H429.463V248.279Z" fill="#00B520"/>
<path d="M317.717 287.383C325.741 287.383 332.246 280.878 332.246 272.854C332.246 264.83 325.741 258.325 317.717 258.325C309.693 258.325 303.188 264.83 303.188 272.854C303.188 280.878 309.693 287.383 317.717 287.383Z" fill="#B7BCBE"/>
<path d="M316.963 254.371C318.413 260.699 319.643 267.074 320.654 273.496C320.958 275.404 321.229 277.417 320.538 279.221C319.958 280.725 318.779 281.9 317.854 283.217C316.929 284.533 316.229 286.221 316.792 287.729C317.354 289.238 318.996 290.063 320.563 290.488C325.046 291.696 329.825 290.817 334.288 289.508C336.308 288.988 338.245 288.186 340.042 287.125C341.933 285.925 343.483 284.258 344.908 282.542C351.413 274.654 355.671 265.188 359.679 255.779C357.104 256.014 354.509 255.632 352.11 254.665C349.712 253.699 347.577 252.175 345.883 250.221C344.242 248.292 343.038 245.604 343.963 243.246C341.25 244.733 338.029 244.833 335.108 245.85C333.297 246.542 331.554 247.4 329.9 248.413C327.906 249.565 325.922 250.74 323.95 251.938C321.696 253.296 319.583 254.504 316.963 254.371Z" fill="#E0D3BB"/>
<path d="M347.35 265.279C344.804 270.233 341.492 274.996 336.763 277.946C332.034 280.896 325.667 281.696 320.929 278.779C318.596 277.354 316.829 275.188 314.792 273.363C312.754 271.538 310.209 269.975 307.471 270.213C304.454 270.475 302.092 272.829 300.071 275.083C297.004 278.508 294.042 282.079 291.871 286.133C287.704 293.925 286.717 303.033 286.9 311.867C287.084 320.7 288.363 329.488 288.392 338.321C288.434 349.188 286.592 359.967 284.729 370.671C301.854 368.563 319 373.171 336.163 374.917C347.146 376.046 358.213 376.021 369.254 375.992C371.196 375.992 373.263 375.942 374.879 374.867C375.868 374.146 376.667 373.197 377.209 372.1C378.734 369.288 379.346 366.079 379.771 362.908C380.85 354.9 380.884 346.792 380.913 338.708C380.988 319.125 381.059 299.471 378.571 280.042C377.959 275.262 377.175 270.458 375.342 265.988C373.509 261.517 370.517 257.404 366.334 255.008C363.646 253.467 357.417 250.783 354.25 252.337C350.696 254.071 349.054 261.962 347.35 265.279Z" fill="#B7BCBE"/>
<path d="M348.617 320.579C347.971 308.496 345.342 295.6 350.938 284.875C352.313 282.242 347.379 278.954 348.904 276.404C350.765 273.295 352.177 269.938 353.096 266.433C353.413 265.229 353.667 263.954 353.367 262.746C352.813 260.542 350.633 259.229 348.783 257.888C346.742 256.404 345.692 251.883 345.033 249.438C344.375 246.992 350.271 249.938 352.642 249.067C355.934 247.863 360.117 248.621 363.4 249.842C365.233 250.517 367.225 250.575 369.179 250.625C372.975 250.725 376.783 250.821 380.55 250.354C382.242 250.142 383.938 249.821 385.638 249.917C389.975 250.163 393.746 253.129 396.313 256.638C398.879 260.146 400.513 264.233 402.617 268.033C404.371 271.2 406.463 274.192 407.958 277.487C409.283 280.404 410.121 283.537 410.95 286.654L413.088 294.65C413.462 295.794 413.639 296.993 413.613 298.196C413.504 299.475 412.938 300.667 412.363 301.804C410.188 306.02 407.581 309.999 404.584 313.675C400.088 319.188 394.629 324.158 391.959 330.758C390.917 333.329 390.338 336.062 389.808 338.787C387.675 349.686 386.159 360.697 385.267 371.767C380.398 369.514 375.295 367.807 370.05 366.679C367.436 366.12 364.793 365.703 362.133 365.429C359.804 365.187 356.8 365.646 354.583 365.012C350.875 363.958 350.467 357.688 349.904 354.404C349.004 349.175 348.825 343.854 348.792 338.571C348.75 332.563 348.938 326.567 348.617 320.579Z" fill="#889093"/>
<path d="M267.179 297.983C268.933 307.983 270.867 318.013 274.679 327.408C274.583 327.5 274.488 327.583 274.392 327.667C274.054 327.954 273.704 328.225 273.338 328.5C272.483 329.1 271.546 329.608 270.838 330.392C270.569 330.691 270.358 331.037 270.213 331.413C270.082 331.706 270.014 332.023 270.014 332.344C270.014 332.665 270.082 332.982 270.213 333.275C268.225 334.154 265.917 333.883 263.688 333.8C261.767 333.729 259.904 333.8 258.363 334.854C256.221 336.329 255.575 339.163 255.229 341.738C255.102 342.676 254.992 343.617 254.9 344.558C254.811 345.433 254.739 346.311 254.683 347.192C254.495 350.105 254.468 353.026 254.604 355.942C254.627 356.475 254.656 357.008 254.692 357.542C247.883 357.379 241.679 353.829 235.808 350.379C234.467 349.592 233.083 348.763 232.213 347.463C231.41 346.186 231.07 344.672 231.25 343.175C231.25 342.963 231.288 342.758 231.317 342.542C231.503 341.305 231.823 340.093 232.271 338.925C234.108 333.952 236.815 329.345 240.267 325.321C241.758 323.579 243.438 321.875 244.133 319.688C244.438 318.733 244.55 317.721 244.858 316.771C246.242 312.654 251.233 310.708 252.942 306.713C253.358 305.758 253.55 304.713 254.067 303.796C254.532 303.034 255.132 302.363 255.838 301.817C256.142 301.563 256.458 301.317 256.771 301.071C259.699 298.776 262.52 296.353 265.233 293.8C265.739 293.325 266.239 292.844 266.733 292.358C266.667 294.244 266.817 296.131 267.179 297.983V297.983Z" fill="#889093"/>
<path d="M309.167 268.408C308.567 269.042 307.917 269.637 307.279 270.229L307.109 270.383L306.434 271.008C305.208 272.066 304.148 273.3 303.288 274.671L303.217 274.787C301.092 278.592 301.879 283.275 302.471 287.596C303.205 292.98 303.535 298.412 303.459 303.846C303.35 311.346 302.467 318.796 302.45 326.287C302.45 327.987 302.488 329.683 302.563 331.383C302.684 334.146 302.892 336.904 303.142 339.662C303.413 342.687 303.738 345.708 304.042 348.729C304.284 351.067 304.513 353.4 304.704 355.733C304.8 356.942 304.892 358.146 304.967 359.354C305.054 360.771 305.125 362.192 305.167 363.608C305.196 364.508 305.213 365.404 305.213 366.304C305.213 366.817 305.213 367.325 305.213 367.833C305.213 368.808 305.186 369.781 305.134 370.75C305.078 371.997 304.993 373.247 304.879 374.5C304.75 375.862 304.521 377.35 303.563 378.308C303.504 378.367 303.442 378.421 303.379 378.475L302.029 378.308C292.723 377.194 283.328 377.027 273.988 377.808C274.192 376.4 274.379 374.996 274.563 373.583C274.646 372.917 274.729 372.246 274.809 371.575C274.9 370.808 274.988 370.042 275.071 369.275C275.167 368.442 275.254 367.608 275.338 366.775C275.554 364.628 275.745 362.479 275.909 360.329C276.15 357.193 276.334 354.051 276.459 350.904C276.52 349.401 276.567 347.897 276.6 346.392C276.647 344.525 276.67 342.657 276.667 340.787C276.667 338.971 276.652 337.151 276.621 335.329C276.621 334.729 276.596 334.129 276.546 333.533C276.51 332.997 276.436 332.464 276.325 331.937C276.016 330.724 275.597 329.542 275.075 328.404C274.984 328.187 274.896 327.987 274.809 327.758C274.759 327.646 274.713 327.529 274.667 327.417C277.067 325.279 278.775 322.417 280.417 319.6C283.079 315.062 285.804 310.325 286.25 305.083C286.696 299.842 284.092 293.954 279.084 292.354C277.721 291.937 276.279 291.821 274.875 291.575C273.55 291.342 270.788 290.812 269.254 289.862C268.421 290.718 267.588 291.558 266.754 292.383C266.805 291.125 267.113 289.889 267.659 288.754L268.25 288.783C268.202 288.65 268.179 288.508 268.184 288.367C268.184 287.921 268.492 287.417 269.15 286.858C271.113 285.192 274.2 284.821 275.438 282.567C275.954 281.629 276.042 280.512 276.459 279.529C277.654 276.725 281.088 275.692 283.154 273.45C285.221 271.208 285.738 268.033 287.409 265.533C288.657 263.708 290.388 262.265 292.409 261.367C292.575 261.287 292.746 261.208 292.917 261.137C296.375 259.658 300.484 259.321 304.067 259.329C305.459 259.329 309.067 259.371 310.834 260.075C311.12 260.177 311.382 260.338 311.604 260.546C313.488 262.596 310.559 266.925 309.167 268.408Z" fill="#889093"/>
<path d="M267.8 288.463C271.019 287.494 274.398 287.174 277.741 287.522C281.085 287.871 284.325 288.88 287.275 290.492C290.275 292.158 292.967 294.483 294.617 297.483C297.096 301.983 296.988 307.408 296.813 312.546C296.725 315.117 296.613 317.779 295.479 320.088C294.167 322.758 291.692 324.592 289.167 326.092C287.585 327.101 285.852 327.851 284.034 328.313C281.234 328.921 278.325 328.404 275.504 327.896C272.438 327.329 269.146 326.646 267.017 324.363C265.767 323.038 265.084 321.317 264.409 319.633C263.439 317.203 262.467 314.775 261.492 312.35C259.804 308.138 259.234 304.633 261.463 300.529C262.475 298.658 263.713 296.908 264.713 295.025C265.213 294.067 267.004 288.708 267.8 288.463Z" fill="#889093"/>
<path d="M442.917 360.492V372.95C434.37 376.501 425.201 378.314 415.946 378.283H303.575C303.517 378.342 303.454 378.396 303.392 378.45L302.042 378.283H102.154C85.3834 378.283 69.8418 373.758 57.0959 366.05V347.029L153.229 335.933H153.304L209.288 340.675L223.775 341.925L231.3 342.563L246.875 343.883L254.888 344.563L266.554 345.554L268.196 345.692L276.604 346.404L288.013 347.342L304.054 348.7L330.796 350.971L349.608 352.567L380.5 355.188L386.375 355.683L387.008 355.738L387.558 355.783L395.317 356.442L403.833 357.167L404.821 357.25L442.917 360.492Z" fill="#102026"/>
<path d="M330 360.033L209.525 339.471L204.854 363.092L260.079 369.704L277.084 371.833L323.859 362.621L330 360.033Z" fill="#B7BCBE"/>
<path d="M267.638 370.65L327.996 359.304C328.298 359.246 328.609 359.256 328.907 359.333C329.205 359.409 329.482 359.551 329.718 359.747C329.955 359.944 330.145 360.19 330.275 360.468C330.405 360.747 330.472 361.051 330.471 361.358V361.358C330.472 361.846 330.303 362.319 329.991 362.694C329.68 363.07 329.246 363.324 328.767 363.413L269.821 374.45L267.638 370.65Z" fill="#B7BCBE"/>
<path d="M293.821 334.971C295.7 334.796 297.604 334.5 299.296 333.667C301.379 332.629 303 330.842 304.929 329.525C309.171 326.608 314.846 326.217 319.708 327.892C324.571 329.567 328.629 333.154 331.471 337.437C333.358 340.292 334.775 343.933 333.442 347.083C332.984 348.046 332.408 348.948 331.725 349.767L328.25 354.308C327.59 355.263 326.796 356.118 325.892 356.846C324.592 357.792 322.975 358.179 321.383 358.412C317.154 359.029 312.85 358.679 308.588 358.962C301.267 359.45 294.117 361.808 286.779 361.729C282.563 361.683 278.4 360.833 274.279 359.983L256.042 356.233C252.867 355.583 249.279 354.633 247.783 351.754C247.113 350.458 246.988 348.958 246.908 347.5C246.692 343.483 246.908 339.017 249.692 336.121C252.308 333.404 256.446 332.546 259.571 330.537C263.396 328.075 264.658 328.871 268.692 330.721C276.56 334.284 285.218 335.749 293.821 334.971V334.971Z" fill="#E0D3BB"/>
<path opacity="0.05" d="M293.821 334.971C295.7 334.796 297.604 334.5 299.296 333.667C301.379 332.629 303 330.842 304.929 329.525C309.171 326.608 314.846 326.217 319.708 327.892C324.571 329.567 328.629 333.154 331.471 337.437C333.358 340.292 334.775 343.933 333.442 347.083C332.984 348.046 332.408 348.948 331.725 349.767L328.25 354.308C327.59 355.263 326.796 356.118 325.892 356.846C324.592 357.792 322.975 358.179 321.383 358.412C317.154 359.029 312.85 358.679 308.588 358.962C301.267 359.45 294.117 361.808 286.779 361.729C282.563 361.683 278.4 360.833 274.279 359.983L256.042 356.233C252.867 355.583 249.279 354.633 247.783 351.754C247.113 350.458 246.988 348.958 246.908 347.5C246.692 343.483 246.908 339.017 249.692 336.121C252.308 333.404 256.446 332.546 259.571 330.537C263.396 328.075 264.658 328.871 268.692 330.721C276.56 334.284 285.218 335.749 293.821 334.971V334.971Z" fill="#050B0D"/>
<path d="M367.059 329.258C361.942 331.238 356.796 333.225 351.438 334.404C342.454 336.383 333.054 336.071 324.142 338.333C319.434 339.533 314.754 341.467 309.917 341.075C307.754 340.9 305.667 340.242 303.563 339.742C291.742 336.825 278.304 337.771 268.704 345.271C265.421 347.833 262.734 351.029 260.296 354.438C259.774 355.174 259.422 356.016 259.264 356.904C259.105 357.792 259.145 358.705 259.381 359.576C259.616 360.447 260.041 361.255 260.625 361.943C261.209 362.631 261.937 363.181 262.758 363.554C266.492 365.271 270.491 366.338 274.583 366.708C280.054 367.192 285.55 366.417 290.992 365.642C299.067 364.496 307.146 363.346 315.2 362.058C318.092 361.596 320.984 361.117 323.892 360.75C344.821 358.104 366.129 361.321 387.113 359.113C389.234 358.888 391.392 358.596 393.321 357.692C398.204 355.4 400.621 349.358 399.613 344.05C398.604 338.742 394.713 334.329 390.029 331.621C386.104 329.342 381.871 328.421 377.5 327.454C373.442 326.508 370.967 327.758 367.059 329.258Z" fill="#E0D3BB"/>
<path opacity="0.1" d="M411.946 297.525C414.254 300.55 414.746 304.608 414.496 308.396C414.246 312.183 413.346 315.929 413.213 319.733C413.029 324.95 414.288 330.15 414.075 335.35C413.925 338.988 413.063 342.554 412.042 346.046C410.838 350.167 409.096 354.596 405.292 356.575C400.242 359.204 389.65 357.725 384.338 359.783C384.821 356.771 389.454 352.408 389.938 349.396C390.271 347.313 390.609 345.171 390.25 343.083C389.792 340.421 388.229 338.058 386.375 336.092C383.425 332.963 379.575 330.608 375.346 329.842C371.117 329.075 360.763 329.704 357.379 332.375C356.963 329.617 364.713 326.958 367.438 326.363C368.796 326.058 370.354 326.229 371.442 325.367C373.525 323.733 372.013 320.479 372.113 317.867C372.192 315.783 373.409 313.875 373.654 311.792C374.071 308.458 371.896 305.063 372.75 301.792C373.067 300.583 373.771 299.521 374.258 298.371C375.742 294.85 375.092 290.833 374.3 287.092C373.809 284.742 373.329 282.092 374.638 280.088C375.85 278.217 379.292 284.879 381.496 284.571C388.775 283.55 395.363 278.154 401.242 282.571C404.238 284.821 404.629 287.154 405.825 290.367C406.988 293.425 410 294.992 411.946 297.525Z" fill="#050B0D"/>
<path d="M413.196 297.525C415.504 300.55 415.996 304.608 415.746 308.396C415.496 312.183 414.596 315.929 414.463 319.733C414.279 324.95 415.538 330.15 415.325 335.35C415.175 338.987 414.313 342.554 413.292 346.046C412.088 350.167 410.346 354.596 406.542 356.575C401.492 359.204 390.9 357.725 385.588 359.783C386.071 356.771 390.704 352.408 391.188 349.396C391.521 347.312 391.859 345.171 391.5 343.083C391.042 340.421 389.479 338.058 387.625 336.092C384.675 332.962 380.825 330.608 376.596 329.842C372.367 329.075 362.013 329.704 358.629 332.375C358.213 329.617 365.963 326.958 368.688 326.363C370.046 326.058 371.604 326.229 372.692 325.367C374.775 323.733 373.263 320.479 373.363 317.867C373.442 315.783 374.659 313.875 374.904 311.792C375.321 308.458 373.146 305.062 374 301.792C374.317 300.583 375.021 299.521 375.508 298.371C376.992 294.85 376.342 290.833 375.55 287.092C375.059 284.742 374.579 282.092 375.888 280.088C377.1 278.217 379.471 277.508 381.675 277.196C389.055 276.198 396.533 278.127 402.509 282.571C405.504 284.821 405.896 287.154 407.092 290.367C408.238 293.425 411.25 294.992 413.196 297.525Z" fill="#889093"/>
<path d="M137.5 277.783L160.154 361.508C160.432 362.534 161.016 363.451 161.828 364.137C162.64 364.822 163.642 365.244 164.7 365.346L266.667 375.142C267.498 375.222 268.336 375.102 269.111 374.791C269.886 374.481 270.575 373.989 271.121 373.358C271.667 372.726 272.054 371.973 272.249 371.161C272.444 370.349 272.441 369.502 272.242 368.692L247.433 267.7C247.138 266.5 246.427 265.443 245.426 264.717C244.425 263.992 243.199 263.645 241.967 263.738L142.138 271.204C141.371 271.264 140.627 271.492 139.959 271.872C139.291 272.252 138.715 272.775 138.272 273.403C137.829 274.032 137.53 274.75 137.397 275.507C137.263 276.264 137.299 277.041 137.5 277.783V277.783Z" fill="#B7BCBE"/>
<path d="M339.629 294.121C345.82 294.121 350.838 289.037 350.838 282.767C350.838 276.496 345.82 271.413 339.629 271.413C333.439 271.413 328.421 276.496 328.421 282.767C328.421 289.037 333.439 294.121 339.629 294.121Z" fill="white"/>
<path d="M348.833 262.054C348.833 262.054 351.196 269.079 344.225 272.033L343.333 273.592L347.7 277.9C347.7 277.9 353.083 268.079 352.5 264.592C352.5 264.592 351.667 261.05 348.833 262.054Z" fill="white"/>
<path d="M340.917 294.121C346.886 294.121 351.725 289.282 351.725 283.312C351.725 277.343 346.886 272.504 340.917 272.504C334.948 272.504 330.109 277.343 330.109 283.312C330.109 289.282 334.948 294.121 340.917 294.121Z" fill="#00B520"/>
<path d="M352.554 266.188L350.838 263.354L348.338 263C348.871 253.671 346.45 250.892 346.45 250.892L345.888 250.837L343.438 250.6L338.829 245.817V244.458C345.304 245.229 348.884 248.304 350.817 251.908C354.233 258.233 352.554 266.188 352.554 266.188Z" fill="#00B520"/>
<path opacity="0.1" d="M345.908 249.121V250.837L343.458 250.6L338.85 245.817C338.85 245.817 345.979 247.412 345.908 249.121Z" fill="#050B0D" stroke="#889093" stroke-miterlimit="10"/>
<path opacity="0.1" d="M352.554 266.188L350.838 263.354V251.925C354.233 258.233 352.554 266.188 352.554 266.188Z" fill="#050B0D" stroke="#889093" stroke-miterlimit="10"/>
<path d="M320.945 287.755C323.82 286.095 323.697 280.497 320.668 275.252C317.64 270.007 312.854 267.1 309.978 268.761C307.102 270.421 307.226 276.019 310.254 281.264C313.283 286.51 318.069 289.416 320.945 287.755Z" fill="white"/>
<path d="M317.084 277.342C320.113 282.588 323.829 286.092 320.954 287.758C318.079 289.425 309.704 288.592 306.675 283.342C303.646 278.092 306.396 270.842 309.271 269.175C312.146 267.508 314.05 272.083 317.084 277.342Z" fill="#00B520"/>
<path opacity="0.1" d="M344.054 239.55C344.054 256.313 332.583 272.467 315.821 272.467C307.771 272.467 300.05 269.269 294.357 263.576C288.665 257.884 285.467 250.163 285.467 242.113C285.467 234.062 288.665 226.341 294.357 220.649C300.05 214.956 307.771 211.758 315.821 211.758C332.583 211.775 344.054 222.783 344.054 239.55Z" fill="#050B0D"/>
<path d="M315.821 271.65C332.585 271.65 346.175 258.06 346.175 241.296C346.175 224.532 332.585 210.942 315.821 210.942C299.057 210.942 285.467 224.532 285.467 241.296C285.467 258.06 299.057 271.65 315.821 271.65Z" fill="#E0D3BB"/>
<path d="M313.154 227.846C316.767 229.175 318.904 232.908 322.146 234.988C326.729 237.904 332.696 237.15 337.929 235.708C340.846 234.912 343.896 233.942 346.767 234.825C347.189 235.012 347.655 235.078 348.113 235.017C348.738 234.838 349.046 234.146 349.25 233.529C352.8 222.946 351.204 210.958 345.846 201.167C344.463 198.642 342.804 196.2 340.521 194.446C338.721 193.067 336.604 192.162 334.471 191.392C330.572 189.991 326.54 188.996 322.438 188.421C321.713 188.289 320.973 188.265 320.242 188.35C319.238 188.512 318.338 189.054 317.442 189.537C313.605 191.594 309.35 192.75 305 192.917C299.167 193.137 292.5 191.762 288.004 195.504C282.588 199.992 283.938 208.746 280.425 214.837C278.1 218.867 273.617 221.792 272.879 226.379C272.687 227.781 272.777 229.208 273.142 230.575C274.858 237.633 281.692 243.1 288.975 243.229C290.094 243.314 291.214 243.085 292.208 242.567C292.86 242.122 293.436 241.575 293.913 240.946C298.684 235.296 304.142 224.529 313.154 227.846Z" fill="#102026"/>
<path opacity="0.1" d="M349.25 230.458C349.046 231.075 348.738 231.767 348.113 231.946C347.655 232.007 347.189 231.941 346.767 231.754C343.896 230.871 340.829 231.842 337.934 232.637C332.696 234.079 326.717 234.85 322.15 231.917C318.904 229.833 316.771 226.083 313.154 224.775C304.142 221.442 298.684 232.225 293.9 237.875C293.423 238.504 292.848 239.051 292.196 239.496C291.201 240.014 290.081 240.244 288.963 240.158C281.704 240.029 274.867 234.562 273.129 227.504C273.034 227.087 272.95 226.671 272.888 226.254C272.888 226.292 272.888 226.325 272.867 226.362C272.675 227.765 272.764 229.191 273.129 230.558C274.846 237.617 281.684 243.083 288.963 243.212C290.081 243.298 291.201 243.068 292.196 242.55C292.848 242.105 293.423 241.558 293.9 240.929C298.684 235.279 304.142 224.512 313.154 227.829C316.771 229.158 318.904 232.892 322.15 234.971C326.734 237.887 332.696 237.133 337.934 235.692C340.85 234.896 343.896 233.925 346.767 234.808C347.189 234.995 347.655 235.062 348.113 235C348.738 234.821 349.046 234.129 349.25 233.512C350.682 229.182 351.315 224.627 351.117 220.071C350.994 223.605 350.366 227.103 349.25 230.458V230.458Z" fill="#050B0D"/>
</svg>
