<svg width="125" height="125" viewBox="0 0 125 125" fill="none" xmlns="http://www.w3.org/2000/svg">
<path d="M50.88 48.69V4.6C50.88 4.6 36.62 11.71 36.62 26.82C36.62 41.93 50.88 48.69 50.88 48.69Z" fill="#006E3C"/>
<path d="M50.88 4.6C50.88 4.6 65.14 11.71 65.14 26.82C65.14 41.93 50.88 48.69 50.88 48.69V4.6Z" fill="#00B43C"/>
<path d="M84.18 69.43L103.78 58.28C103.78 58.28 97.01 53.74 90.3 57.56C83.59 61.38 84.18 69.43 84.18 69.43Z" fill="#006E3C"/>
<path d="M103.78 58.29C103.78 58.29 104.23 66.43 97.51 70.25C90.79 74.07 84.18 69.44 84.18 69.44L103.78 58.29Z" fill="#00B43C"/>
<path d="M104.72 56.51C104.37 56.32 96.11 51.96 89.13 56C83.53 59.23 82.42 65.72 82.19 68.42L79.61 69.91C78.32 68.64 76.56 67.86 74.62 67.86C72.7 67.86 70.95 68.62 69.67 69.87L57.83 63.03C57.97 62.48 58.04 61.9 58.04 61.31C58.04 58.05 55.85 55.29 52.87 54.44V50.23C56.32 48.01 67.27 39.96 67.27 27.14C67.27 12.3 52.56 3.03 51.93 2.65L50.88 2L49.84 2.65C49.21 3.03 34.5 12.3 34.5 27.14C34.5 39.96 45.45 48.01 48.9 50.23V54.44C45.91 55.3 43.73 58.05 43.73 61.31C43.73 61.9 43.8 62.48 43.94 63.03L32.1 69.87C30.82 68.63 29.07 67.86 27.15 67.86C23.21 67.86 20 71.07 20 75.01C20 78.26 22.19 81.02 25.17 81.88V96.08C22.19 96.95 20 99.7 20 102.96C20 106.9 23.21 110.11 27.15 110.11C29.24 110.11 31.13 109.21 32.43 107.76L43.94 114.39C43.8 114.94 43.73 115.51 43.73 116.1C43.73 120.04 46.94 123.24 50.88 123.24C54.82 123.24 58.03 120.04 58.03 116.1C58.03 115.51 57.96 114.93 57.82 114.39L69.33 107.76C70.63 109.21 72.52 110.11 74.61 110.11C78.55 110.11 81.76 106.9 81.76 102.96C81.76 99.71 79.57 96.95 76.59 96.09V81.89C79.57 81.03 81.76 78.27 81.76 75.02C81.76 74.44 81.69 73.88 81.57 73.35L84.15 71.87C85.66 72.58 88.63 73.75 92.01 73.75C94.07 73.75 96.28 73.32 98.41 72.09C105.39 68.06 105.75 58.72 105.76 58.33L105.8 57.11L104.72 56.51ZM76.6 77.51C76.05 77.94 75.36 78.2 74.61 78.2C74.21 78.2 73.84 78.13 73.49 77.99C73.18 77.88 72.89 77.72 72.64 77.52C72.01 77.03 71.57 76.3 71.45 75.47C71.43 75.32 71.41 75.17 71.41 75.01C71.41 74.87 71.42 74.74 71.44 74.61C71.58 73.44 72.37 72.46 73.43 72.04C73.8 71.9 74.19 71.82 74.6 71.82C75.04 71.82 75.46 71.91 75.84 72.07C76.98 72.55 77.79 73.69 77.79 75.01C77.79 75.19 77.78 75.36 77.75 75.54C77.63 76.33 77.2 77.03 76.6 77.51ZM77.81 102.96C77.81 104.72 76.38 106.15 74.62 106.15C74.01 106.15 73.43 105.98 72.95 105.68C72.04 105.12 71.42 104.11 71.42 102.96C71.42 102.92 71.42 102.9 71.43 102.87V102.86C71.44 102.51 71.5 102.19 71.62 101.88C71.82 101.31 72.18 100.82 72.65 100.45C73.05 100.13 73.54 99.9 74.07 99.82C74.24 99.78 74.43 99.77 74.62 99.77C75.37 99.77 76.06 100.03 76.61 100.46C77.33 101.04 77.81 101.94 77.81 102.96ZM72.64 96.09C71.67 96.37 70.78 96.85 70.03 97.49L57.9 90.49V90.48C57.99 90.03 58.04 89.55 58.04 89.07C58.04 88.38 57.94 87.71 57.75 87.08L69.69 80.19C70.51 80.97 71.52 81.56 72.64 81.89V96.09ZM50.88 119.3C49.28 119.3 47.96 118.13 47.72 116.59C47.7 116.43 47.68 116.27 47.68 116.11C47.68 114.77 48.51 113.63 49.67 113.15C50.04 113 50.45 112.91 50.87 112.91C51.29 112.91 51.7 113 52.07 113.15C53.24 113.62 54.06 114.77 54.06 116.11C54.06 116.28 54.05 116.43 54.02 116.59C53.8 118.12 52.48 119.3 50.88 119.3ZM43.87 90.5L31.74 97.49C30.98 96.85 30.09 96.37 29.12 96.09V81.89C30.26 81.57 31.27 80.96 32.1 80.16L44.02 87.05C43.83 87.69 43.72 88.37 43.72 89.07C43.73 89.55 43.78 90.03 43.87 90.5ZM30.35 102.96C30.35 104.11 29.74 105.12 28.82 105.68C28.34 105.98 27.76 106.15 27.15 106.15C25.39 106.15 23.96 104.72 23.96 102.96C23.96 101.95 24.43 101.04 25.17 100.46C25.72 100.03 26.41 99.77 27.16 99.77C27.35 99.77 27.53 99.78 27.71 99.82C28.24 99.91 28.72 100.14 29.13 100.45C29.6 100.82 29.96 101.31 30.16 101.88C30.28 102.19 30.34 102.52 30.35 102.87C30.35 102.89 30.35 102.93 30.35 102.96ZM23.96 75.01C23.96 73.25 25.39 71.82 27.15 71.82C27.56 71.82 27.96 71.9 28.32 72.04C29.36 72.45 30.14 73.4 30.31 74.55C30.33 74.7 30.35 74.85 30.35 75.01C30.35 75.17 30.34 75.32 30.31 75.47C30.19 76.3 29.75 77.03 29.12 77.52C28.88 77.71 28.62 77.87 28.33 77.97C27.96 78.12 27.57 78.2 27.15 78.2C26.4 78.2 25.71 77.94 25.16 77.51C24.43 76.93 23.96 76.02 23.96 75.01ZM48.9 58.8C49.45 58.38 50.14 58.12 50.88 58.12C51.62 58.12 52.31 58.38 52.86 58.8C53.49 59.3 53.92 60.02 54.04 60.84C54.06 60.99 54.08 61.15 54.08 61.31C54.08 62.32 53.61 63.23 52.86 63.81C52.62 64 52.35 64.16 52.06 64.26C51.69 64.41 51.3 64.49 50.88 64.49C50.46 64.49 50.07 64.41 49.7 64.26C49.41 64.15 49.14 63.99 48.9 63.81C48.16 63.23 47.68 62.32 47.68 61.31C47.68 61.15 47.69 60.99 47.72 60.84C47.85 60.02 48.28 59.3 48.9 58.8ZM54.07 89.19C54.04 90.16 53.57 91.01 52.86 91.57C52.72 91.68 52.56 91.79 52.4 91.87C51.95 92.11 51.43 92.25 50.88 92.25C50.35 92.25 49.84 92.11 49.39 91.88C49.22 91.79 49.05 91.69 48.9 91.57C48.18 91 47.71 90.13 47.69 89.15C47.68 89.12 47.68 89.09 47.68 89.06C47.68 88.77 47.72 88.5 47.8 88.23C47.97 87.55 48.37 86.97 48.9 86.55C49.25 86.28 49.65 86.08 50.09 85.97C50.34 85.91 50.61 85.87 50.88 85.87C51.17 85.87 51.44 85.91 51.71 85.99C52.13 86.1 52.52 86.3 52.86 86.56C53.38 86.98 53.77 87.55 53.95 88.21C54.03 88.48 54.07 88.77 54.07 89.07C54.08 89.11 54.08 89.15 54.07 89.19ZM67.67 73.28C67.53 73.83 67.46 74.41 67.46 75.01C67.46 75.62 67.54 76.21 67.68 76.78L55.63 83.72C54.85 83.01 53.9 82.48 52.86 82.19V68.17C54 67.85 55.01 67.25 55.84 66.45L67.67 73.28ZM38.46 27.14C38.46 16.63 47.73 9.02 50.89 6.73C54.06 9.01 63.32 16.59 63.32 27.14C63.32 35.94 56.81 42.31 52.87 45.37V28.74C52.87 27.65 51.98 26.76 50.89 26.76C49.8 26.76 48.91 27.65 48.91 28.74V45.37C44.96 42.33 38.46 35.97 38.46 27.14ZM45.92 66.46C46.75 67.26 47.76 67.86 48.9 68.18V82.2C47.87 82.5 46.94 83.01 46.16 83.71L34.1 76.74C34.24 76.19 34.31 75.61 34.31 75.01C34.31 74.41 34.24 73.84 34.1 73.28L45.92 66.46ZM34.19 104.21C34.27 103.81 34.31 103.38 34.31 102.96C34.31 102.2 34.19 101.46 33.96 100.78L45.72 94C46.58 94.9 47.68 95.58 48.91 95.94V109.24C47.77 109.57 46.75 110.18 45.92 110.98L34.19 104.21ZM55.85 110.98C55.02 110.17 54 109.57 52.86 109.24V95.94C54.1 95.59 55.2 94.9 56.05 94L67.8 100.78C67.58 101.47 67.45 102.2 67.45 102.97C67.45 103.39 67.49 103.82 67.57 104.22L55.85 110.98ZM96.43 68.65C93.8 70.16 90.84 69.89 88.6 69.29L92.56 67.01C93.5 66.47 93.83 65.25 93.29 64.31C92.74 63.36 91.53 63.04 90.58 63.58L86.64 65.85C87.24 63.62 88.49 60.93 91.1 59.42C94.88 57.24 99.53 58.62 101.67 59.47C101.35 61.75 100.23 66.46 96.43 68.65Z" fill="black"/>
</svg>
